<!-- Generator: Adobe Illustrator 21.0.2, SVG Export Plug-In  -->
<svg version="1.1"
	 xmlns="http://www.w3.org/2000/svg" xmlns:xlink="http://www.w3.org/1999/xlink" xmlns:a="http://ns.adobe.com/AdobeSVGViewerExtensions/3.0/"
	 x="0px" y="0px" width="714.082px" height="900px" viewBox="0 0 714.082 900"
	 style="overflow:scroll;enable-background:new 0 0 714.082 900;" xml:space="preserve">
<style type="text/css">
	.st0{fill:#232323;}
	.st1{fill:none;stroke:#FDCD0A;stroke-width:4;stroke-miterlimit:10;}
	.st2{fill:#FDCD0A;}
	.st3{fill:none;stroke:#FDCD0A;stroke-width:3;stroke-miterlimit:10;}
	.st4{clip-path:url(#SVGID_2_);fill:none;stroke:#FDCD0A;stroke-width:3;stroke-miterlimit:10;}
	.st5{fill:none;stroke:#FDCD0A;stroke-width:2;stroke-miterlimit:10;}
	.st6{clip-path:url(#SVGID_4_);fill:none;stroke:#FDCD0A;stroke-width:3;stroke-miterlimit:10;}
</style>
<defs>
</defs>
<rect x="208.082" class="st0" width="506" height="900"/>
<polygon class="st1" points="275.971,403.142 235.932,403.142 235.932,244.895 306.969,244.895 "/>
<polygon class="st1" points="701.393,780.669 686.628,807.371 567.984,768.283 583.166,740.829 "/>
<rect x="369.64" y="603.065" class="st1" width="180.559" height="190.969"/>
<rect x="369.64" y="603.719" class="st1" width="180.559" height="51.437"/>
<g>
	<g>
		<path class="st2" d="M406.848,695.847l2.183,2.27v6.907l-2.096,2.183h-4.278v4.234h-3.236v-15.637L406.848,695.847z
			 M402.657,698.997v5.061h3.225v-5.061H402.657z"/>
		<path class="st2" d="M410.204,695.847l3.235-0.043v12.444h3.486v-12.401h3.148v13.281l-2.183,2.27h-5.505l-2.183-2.183V695.847z"
			/>
		<path class="st2" d="M423.257,695.847h5.506l2.183,2.184v2.27h-3.149v-1.304h-3.572v2.965h4.626l2.096,2.183v4.984l-2.183,2.27
			h-5.506l-2.183-2.27v-2.183h3.171l-0.021,1.324l3.572,0.065v-3.312h-4.539l-2.183-2.183v-4.725L423.257,695.847z"/>
		<path class="st2" d="M435.375,695.804h4.659l3.258,15.572h-3.345l-0.532-2.899h-3.432l-0.608,2.899h-3.258L435.375,695.804z
			 M436.602,705.48h2.117l-0.967-4.833L436.602,705.48z"/>
		<path class="st2" d="M444.355,695.847l9.35-0.043v3.192h-3.063v12.401h-3.138v-12.401h-3.149V695.847z"/>
		<path class="st2" d="M462.49,695.847h5.506l2.183,2.184v2.27h-3.149v-1.304h-3.572v2.965h4.626l2.096,2.183v4.984l-2.183,2.27
			h-5.506l-2.183-2.27v-2.183h3.171l-0.021,1.324l3.572,0.065v-3.312h-4.539l-2.183-2.183v-4.725L462.49,695.847z"/>
		<path class="st2" d="M471.374,695.847l3.235-0.043v12.444h3.486v-12.401h3.148v13.281l-2.183,2.27h-5.505l-2.183-2.183V695.847z"
			/>
		<path class="st2" d="M482.264,695.847h3.16v6.06l3.073-6.06h3.595l-3.769,7.113l4.474,8.427h-3.594l-3.779-7.374v7.374h-3.16
			V695.847z"/>
		<path class="st2" d="M497.434,695.804h4.659l3.258,15.572h-3.345l-0.532-2.899h-3.432l-0.608,2.899h-3.258L497.434,695.804z
			 M498.662,705.48h2.117l-0.967-4.833L498.662,705.48z"/>
		<path class="st2" d="M506.35,695.847h3.975l3.236,8.731l-0.044-8.731h3.095v15.551h-4.104l-3.051-9.263l0.021,9.263h-3.084
			L506.35,695.847z"/>
		<path class="st2" d="M399.431,716.634h7.721l2.193,2.194v11.141l-2.106,2.194h-7.808V716.634z M402.592,719.708v9.383h3.595
			v-9.383H402.592z"/>
		<path class="st2" d="M413.765,716.591h4.659l3.258,15.572h-3.345l-0.532-2.899h-3.432l-0.608,2.899h-3.258L413.765,716.591z
			 M414.993,726.267h2.117l-0.967-4.833L414.993,726.267z"/>
		<path class="st2" d="M422.68,716.634h3.975l3.236,8.731l-0.044-8.731h3.095v15.551h-4.104l-3.051-9.263l0.021,9.263h-3.084
			L422.68,716.634z"/>
		<path class="st2" d="M407.022,737.379l2.28,2.193v4.637l-1.314,1.401l1.314,1.313v5.962h-3.16v-5.962h-3.627l0.032,6.049h-3.148
			v-15.638L407.022,737.379z M402.548,740.528v3.333h3.595v-3.333H402.548z"/>
		<path class="st2" d="M410.323,737.422h8.155v3.073h-4.995v2.976l4.995-0.032v3.235l-4.995-0.043v3.247l4.995,0.064v3.009h-8.155
			V737.422z"/>
		<path class="st2" d="M419.477,737.422h3.16v6.06l3.073-6.06h3.595l-3.769,7.113l4.474,8.427h-3.594l-3.779-7.374v7.374h-3.16
			V737.422z"/>
		<path class="st2" d="M438.959,737.379l2.28,2.193v4.637l-1.314,1.401l1.314,1.313v5.962h-3.16v-5.962h-3.627l0.032,6.049h-3.148
			v-15.638L438.959,737.379z M434.484,740.528v3.333h3.595v-3.333H434.484z"/>
		<path class="st2" d="M442.26,737.422h8.155v3.073h-4.995v2.976l4.995-0.032v3.235l-4.995-0.043v3.247l4.995,0.064v3.009h-8.155
			V737.422z"/>
		<path class="st2" d="M454.682,737.379h4.659l3.258,15.572h-3.345l-0.532-2.899h-3.432l-0.608,2.899h-3.258L454.682,737.379z
			 M455.91,747.054h2.117l-0.967-4.833L455.91,747.054z"/>
		<path class="st2" d="M465.846,737.422h5.506l2.183,2.184v2.27h-3.149v-1.304h-3.572v2.965h4.626l2.096,2.183v4.984l-2.183,2.27
			h-5.506l-2.183-2.27v-2.183h3.171l-0.021,1.324l3.572,0.065v-3.312h-4.539l-2.183-2.183v-4.725L465.846,737.422z"/>
		<path class="st2" d="M474.675,737.466h3.149v15.496h-3.149V737.466z"/>
	</g>
</g>
<g>
	<g>
		<path class="st2" d="M423.8,620.39l9.35-0.043v3.192h-3.063v12.401h-3.138V623.54H423.8V620.39z"/>
		<path class="st2" d="M437.525,620.347h4.659l3.258,15.572h-3.345l-0.532-2.899h-3.432l-0.608,2.899h-3.258L437.525,620.347z
			 M438.753,630.023h2.117l-0.967-4.833L438.753,630.023z"/>
		<path class="st2" d="M446.44,620.39h3.975l3.236,8.731l-0.044-8.731h3.095v15.551h-4.104l-3.051-9.263l0.021,9.263h-3.084
			L446.44,620.39z"/>
		<path class="st2" d="M457.766,620.39h7.721l2.193,2.194v11.141l-2.106,2.194h-7.808V620.39z M460.927,623.464v9.383h3.595v-9.383
			H460.927z"/>
		<path class="st2" d="M472.1,620.347h4.659l3.258,15.572h-3.345l-0.532-2.899h-3.432l-0.608,2.899h-3.258L472.1,620.347z
			 M473.328,630.023h2.117l-0.967-4.833L473.328,630.023z"/>
		<path class="st2" d="M483.263,620.39h5.506l2.183,2.184v2.27h-3.149v-1.304h-3.572v2.965h4.626l2.096,2.183v4.984l-2.183,2.27
			h-5.506l-2.183-2.27v-2.183h3.171l-0.021,1.324l3.572,0.065v-3.312h-4.539l-2.183-2.183v-4.725L483.263,620.39z"/>
	</g>
</g>
<g>
	<g>
		<path class="st2" d="M605.741,548.268l2.27-2.183h6.907l2.183,2.096v4.278h4.234v3.236h-15.637L605.741,548.268z M608.89,552.46
			h5.061v-3.225h-5.061V552.46z"/>
		<path class="st2" d="M605.698,541.677v-4.659l15.572-3.258v3.345l-2.899,0.532v3.432l2.899,0.608v3.258L605.698,541.677z
			 M615.374,540.45v-2.117l-4.833,0.967L615.374,540.45z"/>
		<path class="st2" d="M605.698,525.094l2.193-2.28h4.637l1.401,1.314l1.313-1.314h5.962v3.16h-5.962v3.627l6.049-0.032v3.148
			h-15.638L605.698,525.094z M608.847,529.569h3.333v-3.595h-3.333V529.569z"/>
		<path class="st2" d="M605.741,521.783v-3.16h6.06l-6.06-3.073v-3.595l7.113,3.769l8.427-4.474v3.594l-7.374,3.779h7.374v3.16
			H605.741z"/>
		<path class="st2" d="M605.785,509.903v-3.149h15.496v3.149H605.785z"/>
		<path class="st2" d="M605.741,505.745v-3.975l8.731-3.236l-8.731,0.044v-3.095h15.551v4.104l-9.263,3.051l9.263-0.021v3.084
			L605.741,505.745z"/>
		<path class="st2" d="M605.698,492.355v-5.723l2.291-2.106h2.02v3.258h-1.227v3.519h9.415l0.043-3.605h-3.235l-0.022,1.313h-3.029
			v-4.484h7.036l2.292,2.106v5.636l-2.205,2.204h-11.261L605.698,492.355z"/>
	</g>
</g>
<g>
	<rect x="234.163" y="409.913" class="st1" width="60.208" height="90.856"/>
	<g>
		<path class="st2" d="M247.138,479.41h3.766l1.058,1.058v1.691l-0.676,0.849l0.676,0.675v2.158l-1.016,1.058h-3.808V479.41z
			 M248.662,480.891v1.435h1.774v-1.435H248.662z M248.662,483.85v1.565h1.774v-1.565H248.662z"/>
		<path class="st2" d="M253.516,479.41h2.696l1.053,1.052v5.441l-1.053,1.011h-2.655l-1.1-1.095v-5.357L253.516,479.41z
			 M254.018,480.928v4.509h1.729v-4.509H254.018z"/>
		<path class="st2" d="M257.779,479.388h1.529v6.027h1.953v1.487h-3.482V479.388z"/>
		<path class="st2" d="M263.419,479.388h2.246l1.571,7.51h-1.613l-0.256-1.398h-1.655l-0.293,1.398h-1.571L263.419,479.388z
			 M264.011,484.054h1.021l-0.466-2.33L264.011,484.054z"/>
		<path class="st2" d="M247.122,489.578l4.509-0.021v1.54h-1.477v5.98h-1.514v-5.98h-1.519V489.578z"/>
		<path class="st2" d="M253.741,489.556h2.246l1.571,7.51h-1.613l-0.256-1.398h-1.655l-0.293,1.398h-1.571L253.741,489.556z
			 M254.333,494.222h1.021l-0.466-2.33L254.333,494.222z"/>
		<path class="st2" d="M258.093,489.578h2.242l1.021,3.598l0.886-3.598h2.33v7.493h-1.524v-4.954l-1.272,4.954h-0.885l-1.272-4.954
			v4.954h-1.524V489.578z"/>
		<path class="st2" d="M268.65,489.578l1.053,1.094v3.331l-1.011,1.053h-2.063v2.042h-1.561v-7.541L268.65,489.578z
			 M266.629,491.096v2.44h1.556v-2.44H266.629z"/>
		<path class="st2" d="M271.829,489.556h2.246l1.571,7.51h-1.613l-0.256-1.398h-1.655l-0.293,1.398h-1.571L271.829,489.556z
			 M272.421,494.222h1.021l-0.466-2.33L272.421,494.222z"/>
		<path class="st2" d="M279.826,489.556l1.1,1.058v2.236l-0.634,0.676l0.634,0.634v2.875h-1.524v-2.875h-1.749l0.016,2.917h-1.519
			v-7.541L279.826,489.556z M277.668,491.075v1.607h1.733v-1.607H277.668z"/>
	</g>
	<path id="XMLID_50_" class="st2" d="M271.108,424.131c0,0,3.391,0.126,4.27,2.89c0,0,0.126,1.13-0.125,2.009
		c0,0,2.764,1.634,3.015,3.769c0,0-0.879,3.141-0.629,5.275c0,0,0.503,1.508,0.503,2.764c0,0,1.255,2.387,0.501,2.764
		c0,0,3.392,3.643,2.01,7.411c0,0-2.386,3.015-2.386,4.774c0,0,1.13,4.271-0.251,7.662l0.126,2.136c0,0,1.13,1.633,1.13,4.397
		c0,0,0.502,3.266-2.889,1.884c0,0-0.628-1.256-1.885-2.261c0,0-2.009,0-3.014-1.507c0,0-1.634-2.512,0-3.015l2.01,0.126
		l1.255-1.005l0.377-1.005c0,0,0.126-1.508-0.126-2.764c0,0-1.633-2.387-1.633-4.145c0,0-2.89,2.135-4.02,2.763
		c0,0-2.009,1.508-2.512,2.764c0,0,2.009,1.633,2.764,5.024c0,0,1.758,4.271,3.14,6.155c0,0,3.015,0.754,4.02,1.759
		c0,0,0.753,0.251,0.126,1.507c0,0-0.126,1.131-1.13,1.759c0,0-1.131,0-0.88,1.507c0,0-1.13,3.517-3.768,3.643
		c0,0-1.383-0.377,0.251-4.271c0,0,0.251-2.889-1.884-5.401c0,0-1.004-0.879-0.251-1.131c0,0-5.275-5.903-7.034-9.044
		c0,0-2.135-2.512-0.503-3.894l1.256-2.262c0,0-0.35-2.512,2.54-5.527l1.785-2.387v-2.135l1.354-0.88l-0.642-1.13
		c0,0-0.006-0.628-0.006-1.759c0,0-1.449-2.26-1.198-5.526l0.155-3.267c0,0-5.511-0.628-7.396-0.879c0,0-0.872,0.753-3.132,0.376
		c0,0-1.378,0.251-2.132,0.377c0,0-1.883,0.377-0.5-0.628c0,0-0.626,0-1.381-0.753c0,0-2.261-0.628-0.124-0.88
		c0,0,1.633,0,2.763-0.502c0,0,0.377-1.131,2.009-0.628l3.016,0.126c0,0-3.267-2.638-5.025-7.663c0,0-1.005-2.135-2.387-3.015
		c0,0-3.266-1.381-1.884-1.507c0,0-4.145-1.005-3.014-4.899c0,0,1.256-2.889,4.522-2.387c0,0,3.014,1.256,2.763,4.397
		c0,0,0.629,2.889,1.382,2.135c0,0,2.135-1.508,1.633-0.251l-0.88,1.255c0,0,0.251,1.508,0,2.89c0,0,0.754,1.507,1.257,2.387
		c0,0,2.638,2.387,3.391,3.643c0,0,3.141,0.879,3.894,1.884l1.507-0.126l1.005-1.005l-0.754-1.005l0.251-0.502
		c0,0-0.503-0.754,0.503-1.005c0,0,0.503,0,0.753-0.754C268.972,425.639,269.475,423.881,271.108,424.131z"/>
</g>
<g>
	<path class="st2" d="M313.804,482.097c-0.597-0.735-0.545-1.423,0.089-2.126c0.781-0.866,1.685-1.679,2.23-2.681
		c0.478-0.878,0.722-1.984,0.737-2.994c0.035-2.409-0.478-4.873-0.133-7.221c0.652-4.435,2.209-8.607,4.848-12.33
		c0.791-1.116,1.231-2.476,1.911-3.679c0.525-0.929,1.444-1.716,1.71-2.695c0.578-2.13,1.146-4.342,0.148-6.532
		c-0.111-0.245-0.397-0.424-0.63-0.596c-0.651-0.482-1.316-0.944-2.151-1.539c-0.476,0.533-1.123,1.189-1.689,1.908
		c-0.603,0.766-1.297,1.037-2.276,0.86c-2.858-0.516-5.541-1.432-7.985-3.042c-0.578-0.381-1.327-0.494-1.976-0.779
		c-1.513-0.666-1.522-0.719-1.227-2.364c0.107-0.595,0.173-1.198,0.263-1.842c2.083-0.399,2.246-2.452,2.677-3.968
		c0.737-2.59,1.319-5.258,1.144-8.033c-0.14-2.226,0.368-4.375,1.689-6.234c0.91-1.281,2.032-2.349,3.782-1.913
		c1.709,0.426,2.58,1.73,2.749,3.382c0.387,3.802-0.569,7.185-3.477,9.844c-1.241,1.135-2.663,2.116-3.71,3.406
		c-0.852,1.05-1.303,2.439-1.857,3.71c-0.19,0.436,0.926,2.187,1.48,2.314c1.977,0.453,3.966,0.86,5.962,1.218
		c0.231,0.042,0.68-0.273,0.787-0.526c0.85-1.998,1.642-4.021,2.424-5.966c-0.564-0.47-1.028-0.857-1.646-1.372
		c1.54-0.543,1.372-1.491,0.952-2.462c-0.6-1.388-0.674-2.654,0.394-3.91c0.296-0.348,0.177-1.05,0.246-1.59
		c0.169-1.317,1.524-2.707,2.981-3.057c1.277-0.307,2.877,0.372,3.68,1.426c0.603,0.792,1.338,1.484,2.206,2.429
		c-0.702,0-1.118,0-1.603,0c0,1.425-0.095,2.791,0.054,4.13c0.049,0.439,0.682,1.08,1.133,1.161
		c1.875,0.339,2.721,1.793,3.699,3.119c0.311,0.421,0.631,0.893,0.751,1.389c0.979,4.05,4.242,6.494,6.645,9.541
		c0.579,0.734,1.232,0.835,2.091,0.399c0.888-0.45,1.857-0.742,2.79-1.103c0.079,0.104,0.157,0.208,0.236,0.311
		c-0.19,0.24-0.347,0.521-0.579,0.708c-0.274,0.219-0.614,0.356-0.912,0.814c1.315,0.312,2.63,0.623,3.995,0.947
		c-0.099,0.413-0.277,0.718-0.21,0.953c0.285,0.996-0.303,0.963-0.954,0.869c-0.536-0.078-1.068-0.185-1.601-0.279
		c-0.039,0.092-0.079,0.184-0.118,0.277c0.587,0.428,1.174,0.856,1.755,1.279c-0.53,0.977-0.53,0.977-2.472-0.086
		c0.149,0.474,0.271,0.864,0.393,1.254c-0.08,0.09-0.16,0.18-0.241,0.27c-1.166-0.875-2.327-1.758-3.501-2.622
		c-1.192-0.877-2.399-1.736-3.599-2.603c-0.071,0.071-0.141,0.143-0.212,0.214c0.268,0.43,0.548,0.853,0.801,1.292
		c0.329,0.57,1.102,1.058,0.379,1.851c-0.033,0.037-0.012,0.151,0.017,0.212c1.215,2.533,0.483,5.312,1.001,7.933
		c0.11,0.555,0.172,1.12,0.279,1.676c0.27,1.402,0.275,1.401-1.155,1.612c-0.311,1.981-0.716,3.98-0.912,5.999
		c-0.155,1.599,0.217,1.933,1.769,2.357c1.825,0.499,2.956,1.892,4.121,3.238c0.776,0.896,1.461,1.906,2.365,2.647
		c0.845,0.693,1.907,1.139,2.907,1.624c1.328,0.644,1.583,1.248,1.031,2.602c-0.106,0.26-0.166,0.592-0.106,0.858
		c0.466,2.06-0.163,3.197-2.163,3.833c-0.284,0.09-0.567,0.186-0.85,0.279c-0.303,0-0.605,0-0.908,0
		c-0.893-0.469-0.536-1.229-0.392-1.89c0.34-1.562,0.259-3.031-0.934-4.214c-0.876-0.868-1.748-1.806-2.793-2.423
		c-1.813-1.07-3.732-1.976-5.657-2.837c-2.068-0.925-3.379-2.367-3.638-4.657c-0.22-1.95-0.456-3.9-0.606-5.855
		c-0.19-2.486-0.153-2.502-2.556-2.995c-0.254-0.052-0.656,0.084-0.835,0.276c-2.081,2.238-4.072,4.563-6.217,6.737
		c-1.1,1.115-1.606,2.226-1.608,3.836c-0.005,3.085-1.546,6.031-0.989,9.199c0.066,0.375,0.083,0.776,0.236,1.114
		c0.799,1.762,0.33,2.929-1.258,3.16c-0.836,0.121-1.654,0.363-2.481,0.551C315.619,482.097,314.712,482.097,313.804,482.097z"/>
	<rect x="298.802" y="409.913" class="st1" width="60.208" height="90.856"/>
	<g>
		<path class="st2" d="M317.799,489.043l4.509-0.021v1.54h-1.477v5.98h-1.514v-5.98h-1.519V489.043z"/>
		<path class="st2" d="M322.836,489.043h3.934v1.481h-2.409v1.435l2.409-0.016v1.561l-2.409-0.021v1.565l2.409,0.031v1.451h-3.934
			V489.043z"/>
		<path class="st2" d="M327.21,489.043h1.917l1.561,4.21l-0.021-4.21h1.492v7.499h-1.979l-1.471-4.468l0.01,4.468h-1.487
			L327.21,489.043z"/>
		<path class="st2" d="M332.666,489.063h1.519v7.473h-1.519V489.063z"/>
		<path class="st2" d="M335.756,489.043h2.655l1.053,1.052v1.095h-1.52v-0.628h-1.723v1.43h2.231l1.011,1.052v2.404l-1.053,1.095
			h-2.655l-1.053-1.095v-1.053h1.529l-0.011,0.639l1.723,0.031v-1.597h-2.188l-1.053-1.053v-2.278L335.756,489.043z"/>
	</g>
</g>
<g>
	<rect x="234.163" y="507.774" class="st1" width="124.848" height="188.4"/>
	<g>
		<path class="st2" d="M248.198,655.562l2.183,2.27v6.907l-2.096,2.183h-4.278v4.234h-3.236v-15.637L248.198,655.562z
			 M244.007,658.712v5.061h3.225v-5.061H244.007z"/>
		<path class="st2" d="M254.789,655.519h4.659l3.258,15.572h-3.345l-0.532-2.899h-3.432l-0.608,2.899h-3.258L254.789,655.519z
			 M256.016,665.195h2.117l-0.967-4.833L256.016,665.195z"/>
		<path class="st2" d="M263.781,655.562h7.721l2.193,2.194v11.141l-2.106,2.194h-7.808V655.562z M266.941,658.635v9.383h3.595
			v-9.383H266.941z"/>
		<path class="st2" d="M278.114,655.519h4.659l3.258,15.572h-3.345l-0.532-2.899h-3.432l-0.608,2.899h-3.258L278.114,655.519z
			 M279.342,665.195h2.117l-0.967-4.833L279.342,665.195z"/>
		<path class="st2" d="M287.03,655.562h3.975l3.236,8.731l-0.044-8.731h3.095v15.551h-4.104l-3.051-9.263l0.021,9.263h-3.084
			L287.03,655.562z"/>
		<path class="st2" d="M300.42,655.519h5.723l2.106,2.291v2.02h-3.258v-1.227h-3.519v9.415l3.605,0.043v-3.235l-1.313-0.022v-3.029
			h4.484v7.036l-2.106,2.292h-5.636l-2.204-2.205v-11.261L300.42,655.519z"/>
		<path class="st2" d="M240.727,676.349h3.159v5.712h3.497l0.011-5.712h3.258v15.54h-3.16v-6.798l-3.605,0.032v6.766h-3.159V676.349
			z"/>
		<path class="st2" d="M253.866,676.349h5.593l2.183,2.184v11.282l-2.183,2.096h-5.506l-2.28-2.27v-11.108L253.866,676.349z
			 M254.908,679.499v9.35h3.584v-9.35H254.908z"/>
		<path class="st2" d="M262.727,676.349h3.16v6.06l3.073-6.06h3.595l-3.769,7.113l4.474,8.427h-3.594l-3.779-7.374v7.374h-3.16
			V676.349z"/>
		<path class="st2" d="M274.607,676.393h3.149v15.496h-3.149V676.393z"/>
	</g>
	<g id="XMLID_44_">
		<path id="XMLID_49_" class="st2" d="M320.577,521.484c0.444-0.116,0.898-0.312,1.359-0.619
			C321.936,520.865,321.413,521.125,320.577,521.484z"/>
		<path id="XMLID_45_" class="st2" d="M352.284,631.379c-7.443,1.146-14.029-9.162-14.029-9.162
			c-3.722-8.876-11.452-10.307-11.452-10.307l14.602-16.606c2.862-4.295,7.157-4.581,7.157-4.581
			c-1.144-4.009,6.873-3.721,6.873-3.721c-1.432-13.17-11.453-24.623-11.453-24.623c-3.721-3.149-10.594-17.75-10.594-17.75
			c-4.867-9.735-18.323-9.448-18.323-9.448c1.706-7.679-1.99-10.748-3.986-11.815c2.831,0.711,7.277-0.93,9.498-1.882
			c-3.691,0.96-6.658-4.055-6.658-4.055c-4.295-6.871-8.303-5.153-8.303-5.153c-5.44,0-1.432,8.016-1.432,8.016
			c-2.577,0-6.584,5.154-6.584,5.154c-3.15,6.298,1.43,7.444,1.43,7.444l1.432,2.863c0.859,4.581,2.863,5.726,2.863,5.726
			c-3.722,0.859-3.149,6.872-3.149,6.872c0.573,6.012,0.573,18.324,0.573,18.324c-1.718,1.145-4.295,12.597-4.295,12.597
			c-2.004,0.573-3.435,2.863-3.435,2.863l-48.959-15.46c-2.863-0.573-1.143-2.291-1.143-2.291c6.87-6.299-2.864-4.295-2.864-4.295
			c-7.157,8.017,4.581,11.166,4.581,11.166l46.667,14.316c0.573,3.722,6.586,3.149,6.586,3.149c6.871,7.157,11.451,2.29,11.451,2.29
			l6.585,1.718l-2.862,17.751c-1.144,6.299,3.722,8.303,3.722,8.303l-1.431,18.61c-3.435,7.731-13.17,8.017-13.17,8.017
			c-4.867,1.145-2.863,4.581-2.863,4.581c5.153,6.012,14.887,0.287,14.887,0.287c3.722-0.287,6.872-2.577,6.872-2.577
			c3.722-1.432,0.86-8.016,0.86-8.016c2.29-2.863,5.726-13.457,5.726-13.457c9.161,4.295,14.601,12.311,14.601,12.311
			c-0.286,3.722,2.864,7.158,2.864,7.158l-0.86,5.44c-0.858,4.295,2.864,3.149,2.864,3.149c5.44-2.29,5.154-11.166,5.154-11.166
			C358.87,631.093,352.284,631.379,352.284,631.379z M316.782,589.578l-5.153-1.146l-0.286-3.435l6.871-4.868L316.782,589.578z
			 M314.491,574.977c0,0-4.294,4.868-7.73,6.585l-5.726,2.577l-0.286-2.863c0,0,7.443-7.444,6.299-12.884l0.573-12.597
			c0,0,4.581,5.153,8.876,6.871l4.294,4.868L314.491,574.977z"/>
	</g>
</g>
<g>
	<path class="st2" d="M326.519,317.299c1.883,0.568,3.377,1.6,3.653,3.679c0.175,1.321,0.257,2.688-0.503,3.951
		c-0.66,1.098-0.706,2.227-0.284,3.454c0.205-0.142,0.491-0.231,0.559-0.406c0.486-1.249,0.849-2.552,1.413-3.761
		c0.311-0.665,0.938-1.182,1.422-1.766c0.096,0.086,0.192,0.173,0.288,0.259c-0.2,0.158-0.4,0.316-0.763,0.602
		c0.519,0.029,0.86,0.048,1.414,0.079c-0.34,0.176-0.506,0.261-0.672,0.347c2.296-0.277,4.039,0.519,5.04,2.416
		c1.11-0.431,2.095-0.946,3.142-1.157c0.436-0.088,1.109,0.375,1.476,0.771c0.272,0.293,0.225,0.882,0.32,1.34
		c-0.591-0.047-0.509,1.299-1.41,0.676c-0.115-0.08-0.456,0.04-0.612,0.167c-0.866,0.7-1.431,0.673-2.389-0.257
		c0.424,2.578-1.181,3.855-3.125,4.95c1.939,0.85,2.927,2.225,3.134,4.139c0.15,1.392,0.32,2.791,0.318,4.187
		c-0.003,1.875-0.755,3.484-1.806,5.058c-0.562,0.842-0.583,2.078-0.736,3.151c-0.131,0.917-0.123,1.857-0.137,2.788
		c-0.005,0.392,0.038,0.802,0.154,1.175c1.009,3.257,1.361,6.496-0.046,9.749c-0.282,0.652-0.388,1.38-0.389,2.135
		c-0.054,0.063-0.118,0.188-0.16,0.181c-1.642-0.276-2.041,0.867-2.489,2.071c-0.593,1.593-1.298,3.145-2.079,5.012
		c3.521-1.856,7.143-0.825,10.582-1.416c1.733-0.298,3.44-0.783,5.13-1.278c1.015-0.297,1.526-0.026,1.658,1.007
		c0.027,0.207,0.121,0.415,0.107,0.617c-0.164,2.518-0.322,5.037-0.535,7.551c-0.037,0.44-0.203,0.998-0.513,1.252
		c-0.368,0.301-0.957,0.426-1.451,0.429c-0.165,0.001-0.491-0.619-0.475-0.942c0.121-2.415-1.353-3.965-3.038-5.235
		c-0.55-0.414-1.736-0.201-2.559,0.009c-1.862,0.475-3.658,1.213-5.521,1.684c-1.981,0.501-3.995,0.946-6.021,1.173
		c-1.643,0.183-2.423-0.524-2.631-2.192c-0.211-1.689-0.209-3.404-0.306-5.214c-1.325,0.836-2.52,1.666-3.034,3.224
		c-1.041,3.16-2.892,5.761-5.565,7.759c-2.003,1.497-3.09,3.688-4.389,5.724c-0.357,0.559-0.82,1.051-1.479,1.882
		c-1.109-1.3-2.082-2.507-3.13-3.645c-0.658-0.714-1.541-1.239-2.119-2.003c-0.536-0.708-0.881-1.596-1.143-2.456
		c-0.095-0.313,0.198-0.913,0.496-1.116c0.198-0.135,0.809,0.101,1.077,0.345c1.485,1.351,3.225,1.783,5.164,1.545
		c0.375-0.046,0.845-0.147,1.075-0.4c0.954-1.052,1.928-2.109,2.718-3.283c1.144-1.699,2.212-3.46,3.159-5.274
		c0.488-0.935,0.633-2.046,0.956-3.07c0.1-0.316,0.234-0.64,0.428-0.905c2.043-2.801,3.924-5.749,6.225-8.322
		c1.296-1.449,1.504-2.635,1.257-4.464c-0.3-2.223,0.111-4.535,0.106-6.808c-0.005-2.189-0.203-4.378-0.207-6.568
		c-0.002-1.065,0.244-2.131,0.401-3.379c-1.107,0.103-2.246,0.2-3.383,0.316c-1.002,0.102-2,0.257-3.005,0.331
		c-1.645,0.121-2.343-0.596-1.834-2.143c0.796-2.417,1.752-4.784,2.716-7.141c0.671-1.639,0.749-3.194,0.065-4.87
		c-1.458-3.575-0.757-6.561,3.026-7.711C325.677,317.299,326.098,317.299,326.519,317.299z M322.723,335.306
		c1.286-0.127,2.419-0.173,3.517-0.39c0.322-0.063,0.767-0.604,0.781-0.941c0.067-1.677,0.056-3.361-0.026-5.037
		c-0.04-0.809-0.298-1.606-0.527-2.758C324.343,329.129,323.241,332.011,322.723,335.306z"/>
	<rect x="298.802" y="313.117" class="st1" width="60.208" height="90.856"/>
	<g>
		<path class="st2" d="M317.814,383.417h3.766l1.058,1.058v1.692l-0.676,0.848l0.676,0.676v2.157l-1.016,1.058h-3.808V383.417z
			 M319.339,384.899v1.435h1.774v-1.435H319.339z M319.339,387.858v1.566h1.774v-1.566H319.339z"/>
		<path class="st2" d="M324.193,383.417h2.696l1.053,1.053v5.441l-1.053,1.011h-2.655l-1.1-1.095v-5.357L324.193,383.417z
			 M324.695,384.935v4.509h1.729v-4.509H324.695z"/>
		<path class="st2" d="M328.456,383.396h1.529v6.028h1.953v1.487h-3.482V383.396z"/>
		<path class="st2" d="M334.096,383.396h2.246l1.571,7.51H336.3l-0.256-1.398h-1.655l-0.293,1.398h-1.571L334.096,383.396z
			 M334.687,388.062h1.021l-0.466-2.331L334.687,388.062z"/>
		<path class="st2" d="M320.773,392.267h1.523v6.415l-0.974,1.016v0.042h-2.445l-1.059-1.1v-2.11h1.52v1.733h1.435V392.267z"/>
		<path class="st2" d="M324.439,392.225h2.246l1.571,7.51h-1.613l-0.256-1.398h-1.655l-0.293,1.398h-1.571L324.439,392.225z
			 M325.031,396.891h1.021l-0.466-2.331L325.031,396.891z"/>
		<path class="st2" d="M332.435,392.225l1.1,1.058v2.236l-0.634,0.676l0.634,0.633v2.875h-1.524v-2.875h-1.749l0.016,2.917h-1.519
			v-7.541L332.435,392.225z M330.277,393.744v1.608h1.733v-1.608H330.277z"/>
		<path class="st2" d="M334.022,392.267h1.519v7.473h-1.519V392.267z"/>
		<path class="st2" d="M336.028,392.246h1.917l1.561,4.21l-0.021-4.21h1.492v7.499h-1.979l-1.471-4.467l0.01,4.467h-1.487
			L336.028,392.246z"/>
		<path class="st2" d="M342.485,392.225h2.76l1.017,1.105v0.974h-1.571v-0.592h-1.697v4.541l1.739,0.021v-1.561l-0.634-0.01v-1.461
			h2.163v3.394l-1.017,1.105h-2.718l-1.063-1.063v-5.43L342.485,392.225z"/>
	</g>
</g>
<g>
	<rect x="234.163" y="703.178" class="st1" width="124.848" height="90.856"/>
	<g>
		<path class="st2" d="M242.263,749.633h4.116l1.516,1.648v1.452h-2.344v-0.883h-2.53v6.772l2.593,0.031v-2.327l-0.945-0.016v-2.18
			h3.227v5.062l-1.516,1.648h-4.054l-1.586-1.586v-8.1L242.263,749.633z"/>
		<path class="st2" d="M248.699,749.664h5.866v2.21h-3.593v2.141l3.593-0.023v2.328l-3.593-0.031v2.335l3.593,0.047v2.164h-5.866
			V749.664z"/>
		<path class="st2" d="M255.268,749.633h2.281v8.99h2.913v2.219h-5.194V749.633z"/>
		<path class="st2" d="M263.681,749.633h3.351l2.344,11.201h-2.406l-0.383-2.086h-2.468l-0.438,2.086h-2.344L263.681,749.633z
			 M264.563,756.592h1.523l-0.695-3.477L264.563,756.592z"/>
		<path class="st2" d="M270.094,749.664h2.859l2.327,6.28l-0.031-6.28h2.227v11.186h-2.953l-2.194-6.663l0.016,6.663h-2.219
			L270.094,749.664z"/>
		<path class="st2" d="M279.725,749.633h4.116l1.516,1.648v1.452h-2.344v-0.883h-2.53v6.772l2.593,0.031v-2.327l-0.945-0.016v-2.18
			h3.227v5.062l-1.516,1.648h-4.054l-1.586-1.586v-8.1L279.725,749.633z"/>
		<path class="st2" d="M287.646,749.633h4.116l1.516,1.648v1.452h-2.344v-0.883h-2.53v6.772l2.593,0.031v-2.327l-0.945-0.016v-2.18
			h3.227v5.062l-1.516,1.648h-4.054l-1.586-1.586v-8.1L287.646,749.633z"/>
		<path class="st2" d="M296.441,749.633h3.351l2.344,11.201h-2.406l-0.383-2.086h-2.468l-0.438,2.086h-2.344L296.441,749.633z
			 M297.323,756.592h1.523l-0.695-3.477L297.323,756.592z"/>
		<path class="st2" d="M302.854,749.664h2.859l2.327,6.28l-0.031-6.28h2.227v11.186h-2.953l-2.194-6.663l0.016,6.663h-2.219
			L302.854,749.664z"/>
		<path class="st2" d="M312.486,749.633h4.116l1.516,1.648v1.452h-2.344v-0.883h-2.53v6.772l2.593,0.031v-2.327l-0.945-0.016v-2.18
			h3.227v5.062l-1.516,1.648h-4.054l-1.586-1.586v-8.1L312.486,749.633z"/>
		<path class="st2" d="M240.739,765.917h2.273v4.108h2.515l0.008-4.108h2.344v11.178h-2.273v-4.89l-2.593,0.023v4.866h-2.273
			V765.917z"/>
		<path class="st2" d="M250.191,765.917h4.022l1.57,1.57v8.115l-1.57,1.508h-3.96l-1.641-1.633v-7.99L250.191,765.917z
			 M250.941,768.181v6.726h2.577v-6.726H250.941z"/>
		<path class="st2" d="M256.564,765.917h2.273v4.358l2.21-4.358h2.586l-2.711,5.116l3.219,6.062h-2.586l-2.718-5.304v5.304h-2.273
			V765.917z"/>
		<path class="st2" d="M265.11,765.948h2.266v11.146h-2.266V765.948z"/>
	</g>
	<g id="XMLID_38_">
		<path id="XMLID_43_" class="st2" d="M334.447,711.409c0.239-0.062,0.483-0.168,0.732-0.333
			C335.179,711.075,334.897,711.215,334.447,711.409z"/>
		<path id="XMLID_39_" class="st2" d="M351.522,770.591c-4.008,0.617-7.555-4.934-7.555-4.934c-2.005-4.78-6.167-5.551-6.167-5.551
			l7.864-8.943c1.542-2.313,3.854-2.467,3.854-2.467c-0.616-2.159,3.701-2.004,3.701-2.004c-0.771-7.093-6.168-13.26-6.168-13.26
			c-2.004-1.696-5.705-9.559-5.705-9.559c-2.621-5.242-9.867-5.088-9.867-5.088c0.919-4.135-1.072-5.788-2.146-6.363
			c1.524,0.383,3.919-0.501,5.115-1.013c-1.988,0.517-3.586-2.184-3.586-2.184c-2.313-3.7-4.471-2.775-4.471-2.775
			c-2.93,0-0.771,4.317-0.771,4.317c-1.388,0-3.546,2.776-3.546,2.776c-1.697,3.392,0.77,4.009,0.77,4.009l0.771,1.542
			c0.462,2.467,1.542,3.084,1.542,3.084c-2.005,0.462-1.696,3.701-1.696,3.701c0.308,3.238,0.308,9.868,0.308,9.868
			c-0.925,0.617-2.313,6.784-2.313,6.784c-1.079,0.308-1.85,1.542-1.85,1.542l-26.366-8.326c-1.542-0.309-0.616-1.234-0.616-1.234
			c3.7-3.392-1.542-2.313-1.542-2.313c-3.854,4.317,2.467,6.013,2.467,6.013l25.132,7.71c0.308,2.004,3.547,1.696,3.547,1.696
			c3.701,3.854,6.167,1.233,6.167,1.233l3.546,0.925l-1.542,9.56c-0.616,3.392,2.004,4.471,2.004,4.471l-0.771,10.022
			c-1.85,4.163-7.093,4.318-7.093,4.318c-2.621,0.617-1.542,2.467-1.542,2.467c2.775,3.238,8.017,0.154,8.017,0.154
			c2.005-0.154,3.701-1.388,3.701-1.388c2.005-0.771,0.463-4.317,0.463-4.317c1.233-1.542,3.084-7.247,3.084-7.247
			c4.934,2.313,7.863,6.63,7.863,6.63c-0.154,2.004,1.542,3.855,1.542,3.855l-0.463,2.929c-0.462,2.313,1.542,1.696,1.542,1.696
			c2.93-1.233,2.775-6.013,2.775-6.013C355.069,770.437,351.522,770.591,351.522,770.591z M332.403,748.08l-2.775-0.617l-0.154-1.85
			l3.701-2.621L332.403,748.08z M331.169,740.216c0,0-2.312,2.621-4.163,3.546l-3.084,1.388l-0.154-1.542
			c0,0,4.008-4.009,3.392-6.938l0.308-6.784c0,0,2.467,2.775,4.78,3.7l2.312,2.621L331.169,740.216z"/>
	</g>
</g>
<g>
	<path class="st2" d="M440.257,458.099c-1.228-1.512-1.122-2.926,0.184-4.373c1.606-1.78,3.465-3.453,4.586-5.514
		c0.982-1.806,1.485-4.079,1.516-6.156c0.072-4.954-0.983-10.021-0.273-14.85c1.341-9.12,4.542-17.699,9.969-25.354
		c1.627-2.295,2.532-5.091,3.929-7.566c1.079-1.911,2.97-3.528,3.517-5.543c1.188-4.379,2.356-8.929,0.304-13.433
		c-0.229-0.503-0.817-0.872-1.296-1.226c-1.339-0.991-2.707-1.942-4.424-3.165c-0.979,1.095-2.309,2.445-3.474,3.924
		c-1.24,1.576-2.666,2.132-4.68,1.769c-5.877-1.06-11.396-2.945-16.421-6.256c-1.189-0.784-2.73-1.015-4.064-1.603
		c-3.111-1.369-3.131-1.478-2.523-4.862c0.22-1.224,0.355-2.463,0.542-3.787c4.284-0.82,4.619-5.043,5.506-8.16
		c1.516-5.326,2.712-10.812,2.352-16.519c-0.289-4.577,0.756-8.996,3.473-12.82c1.871-2.634,4.178-4.83,7.777-3.934
		c3.515,0.875,5.307,3.557,5.652,6.954c0.796,7.819-1.17,14.775-7.151,20.243c-2.553,2.334-5.477,4.352-7.629,7.004
		c-1.753,2.159-2.68,5.015-3.819,7.63c-0.391,0.897,1.904,4.497,3.044,4.758c4.066,0.931,8.155,1.769,12.26,2.505
		c0.476,0.085,1.398-0.562,1.618-1.081c1.748-4.109,3.377-8.268,4.985-12.269c-1.161-0.967-2.114-1.762-3.385-2.821
		c3.167-1.116,2.821-3.065,1.958-5.064c-1.234-2.854-1.386-5.457,0.811-8.04c0.609-0.716,0.364-2.159,0.507-3.27
		c0.348-2.708,3.133-5.566,6.13-6.286c2.625-0.631,5.917,0.764,7.568,2.933c1.24,1.629,2.752,3.052,4.537,4.996
		c-1.444,0-2.3,0-3.296,0c0,2.93-0.195,5.739,0.111,8.492c0.101,0.903,1.403,2.22,2.33,2.387c3.855,0.696,5.595,3.688,7.608,6.413
		c0.64,0.866,1.299,1.837,1.545,2.857c2.013,8.328,8.723,13.354,13.664,19.62c1.19,1.509,2.533,1.716,4.3,0.82
		c1.826-0.926,3.818-1.525,5.738-2.267c0.162,0.213,0.323,0.427,0.485,0.64c-0.391,0.493-0.713,1.072-1.191,1.456
		c-0.564,0.451-1.263,0.732-1.876,1.674c2.704,0.641,5.408,1.282,8.216,1.947c-0.203,0.849-0.57,1.477-0.432,1.96
		c0.586,2.048-0.622,1.98-1.962,1.786c-1.102-0.159-2.196-0.38-3.293-0.574c-0.081,0.19-0.162,0.379-0.243,0.569
		c1.207,0.88,2.415,1.76,3.609,2.63c-1.091,2.008-1.091,2.008-5.083-0.178c0.306,0.975,0.557,1.776,0.809,2.578
		c-0.165,0.185-0.33,0.37-0.495,0.554c-2.398-1.799-4.784-3.614-7.199-5.391c-2.452-1.804-4.933-3.57-7.401-5.353
		c-0.145,0.147-0.291,0.293-0.436,0.44c0.551,0.884,1.126,1.755,1.647,2.657c0.677,1.173,2.267,2.175,0.78,3.807
		c-0.068,0.075-0.025,0.31,0.036,0.437c2.499,5.209,0.993,10.923,2.059,16.313c0.226,1.142,0.353,2.303,0.573,3.447
		c0.555,2.882,0.566,2.88-2.374,3.316c-0.639,4.073-1.473,8.184-1.875,12.337c-0.318,3.287,0.446,3.975,3.637,4.848
		c3.752,1.026,6.079,3.891,8.475,6.658c1.596,1.843,3.004,3.919,4.863,5.443c1.738,1.426,3.922,2.342,5.978,3.339
		c2.731,1.325,3.256,2.566,2.121,5.35c-0.218,0.535-0.342,1.217-0.218,1.765c0.959,4.237-0.335,6.575-4.448,7.882
		c-0.585,0.186-1.166,0.382-1.749,0.573c-0.622,0-1.244,0-1.867,0c-1.836-0.965-1.102-2.528-0.806-3.886
		c0.7-3.212,0.532-6.233-1.921-8.666c-1.801-1.786-3.595-3.714-5.744-4.982c-3.729-2.2-7.674-4.064-11.633-5.835
		c-4.252-1.902-6.949-4.868-7.481-9.577c-0.453-4.01-0.938-8.019-1.246-12.041c-0.391-5.112-0.315-5.145-5.256-6.159
		c-0.523-0.107-1.349,0.172-1.716,0.568c-4.28,4.602-8.374,9.384-12.785,13.853c-2.262,2.292-3.302,4.578-3.307,7.888
		c-0.01,6.344-3.178,12.401-2.034,18.916c0.135,0.77,0.171,1.596,0.486,2.29c1.643,3.624,0.679,6.024-2.586,6.498
		c-1.719,0.25-3.402,0.747-5.101,1.132C443.99,458.099,442.123,458.099,440.257,458.099z"/>
	<rect x="365.726" y="312.195" class="st1" width="211.175" height="185.411"/>
	<g>
		<path class="st2" d="M448.472,472.382l9.272-0.044v3.167h-3.037v12.298h-3.112v-12.298h-3.123V472.382z"/>
		<path class="st2" d="M458.832,472.382h8.088v3.047h-4.954v2.951l4.954-0.032v3.209l-4.954-0.043v3.22l4.954,0.064v2.983h-8.088
			V472.382z"/>
		<path class="st2" d="M467.825,472.382h3.941l3.209,8.658l-0.043-8.658h3.069v15.421h-4.071l-3.025-9.187l0.021,9.187h-3.059
			L467.825,472.382z"/>
		<path class="st2" d="M479.046,472.424h3.123v15.367h-3.123V472.424z"/>
		<path class="st2" d="M485.4,472.382h5.459l2.165,2.164v2.251h-3.123v-1.292h-3.543v2.939h4.588l2.078,2.165v4.942l-2.165,2.251
			H485.4l-2.165-2.251v-2.164h3.145l-0.021,1.313l3.543,0.064v-3.284H485.4l-2.165-2.165v-4.685L485.4,472.382z"/>
	</g>
</g>
<g>
	<rect x="399.61" y="503.879" class="st1" width="60.208" height="90.856"/>
	<g id="XMLID_34_">
		<path id="XMLID_35_" class="st2" d="M454.094,564.555l-0.433-0.478c-0.379-1.329-2.599-1.755-2.599-1.755
			c-2.004-0.797-3.412-3.243-3.412-3.243c-1.029-1.489-2.87-3.775-2.87-3.775c-1.029-1.542-4.495-3.296-4.495-3.296
			c-1.624-0.797-3.141-2.977-3.141-2.977c-0.866-0.904-4.495-6.646-4.495-6.646l-0.162-1.063c0.217-2.234-1.733-3.721-1.733-3.721
			l-0.867-0.639c-0.108-0.744-0.866-1.063-0.866-1.063c-0.109-0.904-0.813-0.957-0.813-0.957c0.055-0.425-0.162-0.585-0.162-0.585
			c0.379-0.584-0.271-0.797-0.271-0.797c-0.758-0.266-0.325-1.169-0.325-1.169c0.921-1.064-0.758-0.585,0-1.489
			c0.039-0.047,0.075-0.093,0.107-0.14c0.602-0.86,0.164-1.72,0.164-1.72c0.325-0.851,0.379-3.509,0.379-3.509l1.137-0.053
			l1.408,0.691l0.271-1.222l0.92-0.053c1.516,1.063,4.982,1.01,4.982,1.01l4.711,0.159c2.491,0.054,4.874,1.01,4.874,1.01
			c1.354,0.638,2.383-0.904,2.383-0.904c0.487-0.159,0.649-0.85,0.649-0.85l3.141-2.499c1.138-0.904,0-0.851,0-0.851
			c0.271-0.957-0.649-0.159-0.649-0.159l-4.82,2.551c-0.812,0.479-3.412-0.319-3.412-0.319c-1.895-0.904-8.122-1.914-8.122-1.914
			c-3.033-0.212-5.091-1.435-5.091-1.435c-1.678-1.276-4.548-1.435-4.548-1.435c-0.487-0.797-1.678-0.266-1.678-0.266
			c-0.271-0.425-1.084-0.212-1.084-0.212l-0.596-1.17c0.704-0.425,0.109-1.754,0.38-2.074c1.144-1.347,1.191-2.499,1.191-2.499
			c0.542-0.266,0.758-0.957,0.758-0.957c1.191-1.595,2.22,2.074,2.22,2.074c0.65,3.137,2.762,2.392,2.762,2.392
			c-1.571-0.106-1.408-1.86-1.408-1.86c1.083-2.233,0.162-3.934,0.162-3.934c-3.682-4.466-5.09,0.615-5.09,0.615
			c-0.38-0.107-0.38,0.137-0.38,0.137s0,0-0.216,0c-0.217,0-1.246-0.775-1.246-0.775c-0.379-1.063-1.787-1.664-1.787-1.664
			c-3.737-0.319-3.737,2.572-3.737,2.572c-0.433-0.107-0.379,0.275-0.379,0.275c-0.379-0.266-1.137,0.431-1.137,0.431
			c-1.624,0.106-1.462,1.969-1.462,1.969c0.433-1.914,1.354-1.009,1.354-1.009c-1.408,1.808-0.217,3.19-0.217,3.19
			c0.487,0.904,0.217,1.649,0.217,1.649c-0.595,1.116,0.596,1.116,0.596,1.116l-0.055,0.692l0.379,0.106
			c-0.379,0.266,0.055,0.585,0.055,0.585c0.27,0.213,0.433,0.744,0.433,0.744c0.325,1.01,1.408,0.532,1.408,0.532
			c0.487-0.425,1.517-0.532,1.517-0.532l-0.055,1.01c-1.3,0.425-1.137,2.127-1.137,2.127l-1.084,2.711
			c-1.299,1.648,0.975,4.36,0.975,4.36l0.704,1.488c-1.084,1.595,0.541,2.393,0.541,2.393l0.325,2.392
			c-0.163,0.372-2.6,3.349-2.6,3.349s1.083-0.744-0.055,0.213c-1.136,0.957-1.841,2.871-1.841,2.871
			c-0.704,0.744-1.733,2.818-1.733,2.818c-0.487,0.319-0.867,0.585-0.867,0.585c0.542,0.744,1.679-0.266,1.679-0.266l-0.271,1.01
			l-3.628,2.977c-1.679,1.648-0.487,3.934-0.487,3.934c0.379,1.595,0.975,3.456,0.975,3.456c-0.108,1.595,1.246,5.264,1.246,5.264
			c0.866,2.339,0.758,4.094,0.758,4.094c-0.596-0.106-0.271,0.478-0.271,0.478c-1.082-0.266-0.974,0.372-0.974,0.372l0.054,0.639
			l-0.596,0.478c-1.245,0.798-4.007,0.798-4.007,0.798c-2.762,0.691,0.055,1.914,0.055,1.914l-0.055,0.478l0.812,0.319l0.348-0.425
			l0.51,0.266v0.425l0.844,0.212l0.477-0.266l0.21,0.479c0,0,0.863-0.106,1.134-0.425l0.324,0.425l0.595-0.053l0.379-0.532
			l1.787-0.319l0.216,0.638l0.649-0.053l0.104-0.425l0.537-0.107v0.478l0.871-0.107l0.219-0.584c0.92-1.223,0.434-3.19,0.434-3.19
			c0.38-1.276-0.703-0.851-0.703-0.851c-0.325-0.638-0.324-9.198-0.324-9.198c0.109-1.435-1.841-4.572-1.841-4.572
			c-0.595-0.585,0.325-1.117,0.325-1.117c0.487-0.425,5.74-2.499,5.74-2.499c0.325,0.159,1.949,0.213,1.949,0.213l0.975,0.318
			c1.462-0.106,3.574-2.583,3.574-2.583c1.3,0.372,2.058,1.618,2.058,1.618h1.949c0.434,0,2.708,1.679,2.708,1.679
			c1.246,1.542,3.357,2.328,3.357,2.328c1.084,0.478,2.275,1.51,2.275,1.51c0.866,1.488,5.09,4.768,5.09,4.768
			c1.3,1.117,2.545,2.438,2.545,2.438c0.65,0.212,0.813,1.058,0.813,1.058l0.595,0.53l0.054,0.424l-0.324,0.371l0.595,1.063
			l-0.595,4.094c-0.758,3.084,1.3,1.489,1.516,1.808l0.921-0.479l-0.217-0.318c0,0,0.487-0.532,0.595-0.266l0.704-0.798
			c0,0-0.054-0.585,0.216-0.531l0.596-0.929l-0.217-0.61h0.487l0.217-0.507l-0.433-0.085l0.649-2h0.38l0.433-0.912l-0.271-0.749
			l0.434,0.025L454.094,564.555z M420.466,542.438c-0.542,0.265-0.217,0.85-0.217,0.85c0.379,0.16-0.055,0.957-0.055,0.957
			l-2.816,1.648c-0.325-1.276,0.65-1.967,0.65-1.967l2.383-2.605C420.899,541.852,420.466,542.438,420.466,542.438z"/>
	</g>
	<g>
		<path class="st2" d="M403.564,580.601h2.655l1.053,1.052v1.095h-1.52v-0.628h-1.723v1.43h2.231l1.011,1.052v2.404l-1.053,1.095
			h-2.655l-1.053-1.095v-1.053h1.529l-0.011,0.639l1.723,0.031v-1.597h-2.188l-1.053-1.053v-2.278L403.564,580.601z"/>
		<path class="st2" d="M407.827,580.601h3.934v1.481h-2.409v1.435l2.409-0.016v1.561l-2.409-0.021v1.565l2.409,0.031v1.451h-3.934
			V580.601z"/>
		<path class="st2" d="M412.2,580.601h1.917l1.561,4.21l-0.021-4.21h1.492v7.499h-1.979l-1.471-4.468l0.01,4.468h-1.487
			L412.2,580.601z"/>
		<path class="st2" d="M419.243,580.58h2.246l1.571,7.51h-1.613l-0.256-1.398h-1.655l-0.293,1.398h-1.571L419.243,580.58z
			 M419.835,585.246h1.021l-0.466-2.33L419.835,585.246z"/>
		<path class="st2" d="M423.595,580.601h2.242l1.021,3.598l0.886-3.598h2.33v7.493h-1.524v-4.954l-1.272,4.954h-0.885l-1.272-4.954
			v4.954h-1.524V580.601z"/>
		<path class="st2" d="M436.897,580.58l1.1,1.058v2.236l-0.634,0.676l0.634,0.634v2.875h-1.524v-2.875h-1.749l0.016,2.917h-1.519
			v-7.541L436.897,580.58z M434.739,582.098v1.607h1.733v-1.607H434.739z"/>
		<path class="st2" d="M439.531,580.601h2.696l1.053,1.052v5.441l-1.053,1.011h-2.655l-1.1-1.095v-5.357L439.531,580.601z
			 M440.033,582.12v4.509h1.729v-4.509H440.033z"/>
		<path class="st2" d="M443.809,580.601h3.766l1.058,1.058v1.691l-0.676,0.849l0.676,0.675v2.158l-1.016,1.058h-3.808V580.601z
			 M445.334,582.083v1.435h1.774v-1.435H445.334z M445.334,585.042v1.565h1.774v-1.565H445.334z"/>
		<path class="st2" d="M449.14,580.622h1.519v7.473h-1.519V580.622z"/>
		<path class="st2" d="M451.188,580.601h1.523v2.922l1.482-2.922h1.733l-1.817,3.43l2.157,4.063h-1.733l-1.822-3.556v3.556h-1.523
			V580.601z"/>
	</g>
</g>
<g>
	<rect x="460.052" y="503.879" class="st1" width="60.208" height="90.856"/>
	<g>
		<path class="st2" d="M475.48,580.601l1.053,1.094v3.331l-1.011,1.053h-2.063v2.042h-1.561v-7.541L475.48,580.601z M473.459,582.12
			v2.44h1.556v-2.44H473.459z"/>
		<path class="st2" d="M477.072,580.622h1.519v7.473h-1.519V580.622z"/>
		<path class="st2" d="M479.078,580.601h1.917l1.561,4.21l-0.021-4.21h1.492v7.499h-1.979l-1.471-4.468l0.01,4.468h-1.487
			L479.078,580.601z"/>
		<path class="st2" d="M490.777,580.601l1.053,1.094v3.331l-1.011,1.053h-2.063v2.042h-1.561v-7.541L490.777,580.601z
			 M488.756,582.12v2.44h1.556v-2.44H488.756z"/>
		<path class="st2" d="M493.417,580.601h2.696l1.053,1.052v5.441l-1.053,1.011h-2.655l-1.1-1.095v-5.357L493.417,580.601z
			 M493.919,582.12v4.509h1.729v-4.509H493.919z"/>
		<path class="st2" d="M497.648,580.601h1.917l1.561,4.21l-0.021-4.21h1.492v7.499h-1.979l-1.471-4.468l0.01,4.468h-1.487
			L497.648,580.601z"/>
		<path class="st2" d="M504.104,580.58h2.76l1.017,1.105v0.974h-1.571v-0.592h-1.697v4.54l1.739,0.021v-1.561l-0.634-0.011v-1.461
			h2.163v3.394l-1.017,1.104h-2.718l-1.063-1.063v-5.431L504.104,580.58z"/>
	</g>
	<path class="st2" d="M475.238,542.542c-0.465-0.369-0.292-0.722-0.11-1.104c0.129-0.272,0.225-0.577,0.257-0.876
		c0.315-2.93,1.085-5.751,2.015-8.534c0.055-0.163,0.164-0.314,0.269-0.454c0.757-1.007,1.507-2.02,2.288-3.009
		c0.22-0.278,0.226-0.508,0.004-0.733c-0.203-0.206-0.427-0.448-0.688-0.531c-0.466-0.148-0.743-0.468-0.996-0.835
		c-0.46-0.667-0.91-1.34-1.361-2.014c-0.039-0.058-0.047-0.136-0.067-0.206c-0.168-0.577-0.268-1.186-0.52-1.724
		c-0.396-0.848-0.365-1.594,0.345-2.215c0.663-0.581,1.335-1.18,2.093-1.613c0.439-0.251,1.055-0.237,1.594-0.256
		c0.559-0.019,1.121,0.061,1.681,0.109c0.125,0.011,0.247,0.062,0.367,0.103c0.217,0.072,0.436,0.218,0.649,0.211
		c0.409-0.015,0.662,0.157,0.889,0.468c0.481,0.657,0.765,1.309,0.739,2.196c-0.028,0.954,0.275,1.923,0.484,2.875
		c0.09,0.407,0.338,0.687,0.865,0.606c0.995-0.153,1.999-0.252,3-0.365c1.208-0.137,2.425-0.283,3.622,0.023
		c0.58,0.148,1.174,0.357,1.673,0.676c0.464,0.297,0.911,0.369,1.421,0.336c0.629-0.041,1.244-0.017,1.782,0.386
		c0.07,0.053,0.198,0.068,0.287,0.048c1.975-0.437,3.876-0.027,5.789,0.436c1.405,0.34,2.829,0.662,4.263,0.792
		c0.918,0.083,1.874-0.172,2.803-0.334c0.269-0.047,0.499-0.304,0.752-0.456c0.393-0.235,0.684-0.123,0.596,0.295
		c-0.171,0.806,0.37,1.232,0.743,1.763c0.136,0.194,0.298,0.37,0.424,0.569c0.077,0.122,0.185,0.359,0.144,0.397
		c-0.115,0.106-0.298,0.146-0.46,0.189c-0.059,0.016-0.135-0.032-0.29-0.076c0.036,0.262,0.06,0.486,0.1,0.708
		c0.026,0.145,0.125,0.294,0.102,0.427c-0.033,0.197-0.145,0.381-0.223,0.57c-0.14-0.121-0.306-0.223-0.415-0.368
		c-0.123-0.163-0.194-0.364-0.288-0.549c-0.044,0.012-0.087,0.025-0.131,0.037c-0.014,0.228-0.003,0.462-0.052,0.683
		c-0.031,0.139-0.157,0.365-0.233,0.362c-0.144-0.006-0.326-0.118-0.41-0.242c-0.093-0.136-0.086-0.338-0.139-0.506
		c-0.059-0.185-0.138-0.364-0.209-0.546c-0.051,0.009-0.102,0.019-0.153,0.028c0.006,0.22,0.05,0.448,0.007,0.659
		c-0.046,0.224-0.174,0.431-0.267,0.645c-0.171-0.163-0.391-0.299-0.501-0.497c-0.118-0.212-0.131-0.482-0.194-0.725
		c-0.15-0.581-0.428-0.658-0.99-0.493c-0.448,0.132-0.997,0.226-1.418,0.087c-1.286-0.425-2.574-0.307-3.871-0.205
		c-1.89,0.149-3.779,0.36-5.656-0.116c-0.082-0.021-0.21,0.008-0.271,0.064c-0.423,0.383-0.93,0.397-1.459,0.387
		c-0.519-0.009-1.039,0.03-1.598,0.049c0.355,1.015,0.65,1.907,0.981,2.785c0.259,0.687,0.727,1.167,1.471,1.356
		c0.511,0.13,0.702,0.58,0.824,1.023c0.103,0.374,0.292,0.598,0.637,0.775c1.248,0.641,2.117,1.689,2.92,2.804
		c0.545,0.757,1.072,1.53,1.672,2.241c0.416,0.493,0.905,0.947,1.431,1.32c0.49,0.347,0.764,0.795,1.003,1.313
		c0.129,0.28,0.312,0.565,0.543,0.764c1.06,0.91,1.861,2.021,2.6,3.19c0.625,0.988,1.273,1.96,1.896,2.949
		c0.114,0.181,0.128,0.425,0.238,0.61c0.309,0.518,0.606,1.051,0.978,1.523c0.589,0.747,1.055,1.513,1.12,2.504
		c0.072,1.097,0.773,1.789,1.693,2.287c0.625,0.338,1.264,0.654,1.878,1.011c0.87,0.507,1.561,1.143,1.733,2.227
		c0.209,1.323-1.052,2.372-2.223,1.93c-0.641-0.241-1.24-0.617-1.819-0.991c-0.708-0.457-1.317-1.114-2.075-1.434
		c-0.893-0.376-1.329-0.958-1.518-1.841c-0.092-0.433-0.335-0.753-0.727-1.007c-0.8-0.518-1.389-1.263-1.808-2.101
		c-0.676-1.353-1.738-2.328-2.977-3.101c-1.507-0.939-3.078-1.775-4.62-2.658c-0.386-0.221-0.767-0.449-1.145-0.684
		c-0.384-0.239-0.737-0.5-1.221-0.574c-0.288-0.044-0.561-0.309-0.801-0.52c-0.31-0.273-0.564-0.61-0.87-0.888
		c-0.487-0.444-0.939-0.434-1.49-0.078c-0.456,0.294-0.954,0.523-1.421,0.801c-0.339,0.202-0.676,0.414-0.98,0.663
		c-0.312,0.254-0.552,0.257-0.85-0.043c-0.071-0.071-0.204-0.123-0.303-0.115c-1.076,0.088-2.154,0.159-3.223,0.302
		c-0.58,0.077-1.144,0.279-1.712,0.435c-0.255,0.07-0.335,0.226-0.262,0.502c0.25,0.945,0.48,1.895,0.711,2.845
		c0.32,1.317,0.529,2.644,0.332,4.005c-0.012,0.083-0.017,0.176,0.007,0.255c0.349,1.16,0.694,2.321,1.062,3.475
		c0.179,0.559,0.367,1.102,0.934,1.449c0.227,0.139,0.399,0.497,0.443,0.78c0.118,0.759,0.163,1.53,0.212,2.297
		c0.008,0.128-0.071,0.315-0.172,0.387c-0.256,0.184-0.543,0.439-0.827,0.452c-1.231,0.057-2.269,0.606-3.325,1.147
		c-1.231,0.631-2.506,1.134-3.916,1.217c-0.444,0.026-0.631-0.156-0.694-0.549c-0.079-0.49-0.013-0.901,0.405-1.269
		c0.899-0.793,1.835-1.568,2.603-2.479c1.715-2.035,1.579-1.893,0.75-4.161c-0.581-1.591-1.399-3.097-2.127-4.633
		c-0.787-1.662-1.323-3.386-1.446-5.233c-0.056-0.842-0.165-1.683-0.293-2.517c-0.086-0.564,0.042-1.043,0.458-1.41
		c0.821-0.722,1.624-1.476,2.512-2.107c1.168-0.83,2.414-1.55,3.617-2.332c0.137-0.089,0.331-0.336,0.298-0.392
		c-0.107-0.182-0.307-0.31-0.472-0.457c-0.009-0.008-0.03-0.006-0.044-0.003c-0.9,0.193-1.555-0.312-2.284-0.716
		c-0.941-0.522-1.956-0.916-2.954-1.326c-0.189-0.078-0.477-0.034-0.671,0.057c-0.199,0.094-0.412,0.284-0.493,0.483
		c-0.448,1.106-0.912,2.21-1.26,3.349c-0.241,0.79-0.312,1.631-0.908,2.276c-0.055,0.06-0.083,0.158-0.097,0.243
		c-0.357,2.207-1.442,4.088-2.657,5.909c-0.814,1.221-1.657,2.423-2.461,3.65c-0.161,0.246-0.214,0.566-0.306,0.855
		c-0.067,0.211-0.064,0.465-0.185,0.633c-0.274,0.381-0.109,0.647,0.131,0.941c0.401,0.49,0.354,0.575-0.051,1.023
		c-0.301,0.334-0.485,0.771-0.75,1.141c-0.304,0.426-0.641,0.827-0.961,1.242c-0.07,0.091-0.144,0.185-0.188,0.29
		c-0.075,0.177-0.136,0.36-0.188,0.545c-0.46,1.655-1.614,2.369-3.26,2.62c-1.948,0.297-3.74-1.334-4.146-2.619
		c-0.848-2.682,0.4-4.553,2.876-5.326c0.78-0.243,1.544-0.27,2.3,0.051c0.456,0.194,0.76,0.054,1.071-0.309
		c0.804-0.939,1.326-2.027,1.784-3.158c0.367-0.905,0.756-1.801,1.127-2.704c0.055-0.133,0.08-0.283,0.094-0.427
		c0.22-2.324,1.094-4.378,2.548-6.193C475.08,542.659,475.147,542.619,475.238,542.542z"/>
	<path class="st3" d="M507.768,524.47c0.077,0.638-0.316,1.216-0.878,1.292c-0.664,0.09-1.227-0.331-1.3-0.971
		c-0.072-0.636,0.33-1.144,0.958-1.212C507.186,523.511,507.698,523.885,507.768,524.47z"/>
</g>
<g>
	<rect x="520.284" y="503.797" class="st1" width="60.208" height="90.856"/>
	<g>
		<path class="st2" d="M535.327,581.856h2.655l1.053,1.052v1.095h-1.52v-0.628h-1.723v1.43h2.231l1.011,1.052v2.404l-1.053,1.095
			h-2.655l-1.053-1.095v-1.053h1.529l-0.011,0.639l1.723,0.031v-1.597h-2.188l-1.053-1.053v-2.278L535.327,581.856z"/>
		<path class="st2" d="M540.606,581.856h2.529l1.011,1.01v5.054l-1.053,1.017h-0.383v0.419h-1.681v-0.419h-0.382l-1.053-1.017
			v-5.054L540.606,581.856z M541.072,583.291v4.21h1.639v-4.21H541.072z"/>
		<path class="st2" d="M544.721,581.856l1.561-0.021v6.002h1.681v-5.98h1.519v6.404l-1.053,1.095h-2.654l-1.053-1.053V581.856z"/>
		<path class="st2" d="M551.593,581.835h2.246l1.571,7.51h-1.613l-0.256-1.398h-1.655l-0.293,1.398h-1.571L551.593,581.835z
			 M552.184,586.501h1.021l-0.466-2.33L552.184,586.501z"/>
		<path class="st2" d="M556.955,581.856h2.655l1.053,1.052v1.095h-1.52v-0.628h-1.723v1.43h2.231l1.011,1.052v2.404l-1.053,1.095
			h-2.655l-1.053-1.095v-1.053h1.529l-0.011,0.639l1.723,0.031v-1.597h-2.188l-1.053-1.053v-2.278L556.955,581.856z"/>
		<path class="st2" d="M561.192,581.856h1.523v2.754h1.687l0.005-2.754h1.571v7.493h-1.524v-3.278l-1.738,0.016v3.263h-1.523
			V581.856z"/>
	</g>
	<g>
		<circle class="st2" cx="566.92" cy="515.594" r="1.065"/>
		<path class="st2" d="M562.245,555.127c-0.064-0.34-0.191-2.316-0.191-2.826c0-0.51-0.17-2.444-0.191-2.678
			c-0.021-0.233,0-0.595-0.234-0.977c-0.234-0.382-0.701-0.914-0.829-1.232c-0.128-0.319-0.616-1.084-0.829-1.445
			c-0.213-0.361-1.169-1.466-1.169-1.466s0.021-0.17,0-0.319c-0.021-0.149-0.616-0.723-0.722-0.956
			c-0.106-0.234,0.361-1.041,0.319-1.254c-0.043-0.213-0.191-0.255-0.531-0.552c-0.34-0.297-1.466-1.53-1.827-2.104
			c-0.361-0.574-0.829-1.466-1.062-2.019c-0.234-0.552-1.169-2.274-1.36-2.89c-0.191-0.616-0.595-1.445-0.807-1.891
			c-0.213-0.446-0.616-1.126-0.829-1.381c-0.212-0.255-0.68-0.85-0.786-1.062c-0.106-0.213-0.361-0.552-0.361-0.552
			s-0.064-0.659-0.021-1.063c0.043-0.404,0.128-1.318,0.064-1.658c-0.064-0.34-0.064-1.19-0.021-1.487
			c0.042-0.298,0.234-0.468,0.212-0.68c-0.021-0.212-0.382-0.68-0.382-0.68c-0.064-0.127,0.489-1.424,0.574-1.764
			c0.085-0.34,0.51-1.424,0.552-1.7c0.042-0.276,0.51-2.359,0.68-3.273c0.17-0.914,0.701-4.122,0.776-4.59
			c0.074-0.468,0.372-0.446,0.563-0.871c0.191-0.425,0-1.211,0-1.211s-0.085-0.149-0.106-0.212
			c-0.021-0.064-0.063-0.361-0.127-0.531c-0.064-0.17-0.212-0.361-0.17-0.553c0.043-0.192,0.065-0.402-0.211-0.445
			c-0.276-0.043-0.402,0.724-0.402,0.724c-0.128,0.042-0.187,0.173-0.187,0.173s-0.217-0.086-0.304-0.245
			c-0.087-0.159-0.289-0.593-0.347-0.752c-0.058-0.159-0.26-0.579-0.376-0.767c-0.116-0.188-0.246-0.275-0.318-0.087
			c-0.072,0.188,0.13,0.55,0.145,0.723c0.015,0.174,0.159,0.492,0.13,0.593c-0.029,0.101-0.043,0.535-0.043,0.622
			s0.058,0.347,0.029,0.506c-0.029,0.159,0.116,0.463,0.116,0.463s0,0.217,0.043,0.477c0.043,0.26,0.174,1.099,0.174,1.374
			c0,0.275-0.26,1.244-0.376,1.562s-0.579,1.577-1.099,2.676c-0.521,1.099-1.013,2.821-1.099,3.24
			c-0.087,0.419-0.347,1.099-0.463,1.62c-0.116,0.521-0.55,1.287-0.607,1.345c-0.058,0.058-0.608,0.781-0.752,0.955
			s-0.116,0.752-0.188,0.825c-0.072,0.072-0.26,0.521-0.318,0.665c-0.058,0.145-0.246,0.333-0.246,0.333
			c-0.043-0.043-0.304-0.174-0.362-0.232c-0.058-0.058-0.043-0.188-0.014-0.304c0.029-0.116,0.151-0.257,0.087-0.406
			c-0.064-0.149-1.084-0.234-1.232-0.34c-0.149-0.106-0.149-0.361-0.213-0.468c-0.064-0.106-0.553-0.276-0.553-0.276
			c-0.021-0.106,0.043-0.149-0.106-0.319c-0.149-0.17-0.85-0.297-1.211-0.425s-0.659,0.149-0.659,0.149
			c-0.871,0.106-1.721,0.68-2.401,1.636c-0.68,0.956-0.468,1.657-0.446,1.934c0.021,0.276,0.213,0.574,0.234,0.659
			c0.021,0.085,0.085,0.51,0.085,0.51c-0.042,0.149,0.064,0.255,0.127,0.382c0.064,0.128,0.468,0.51,0.807,0.701
			c0.34,0.191,0.531,0.234,0.531,0.234s0.276,0.042,0.467,0.256c0.191,0.213,0.552,0.616,0.552,0.616
			c-0.595,0.51-0.595,0.914-0.595,1.211c0,0.297,0.234,0.297,0.297,0.404c0.064,0.106,0.064,0.489,0.085,0.659
			c0.021,0.17,0.149,0.34,0.149,0.34c-0.255,0.149-0.34,0.765-0.446,0.914c-0.106,0.149-0.127,0.319-0.297,0.425
			c-0.17,0.106-0.893,0.531-0.977,0.638c-0.085,0.106-0.106,0.191-0.213,0.276c-0.106,0.085-0.128,0.149-0.213,0.383
			c-0.085,0.234,0.021,0.361,0.021,0.361s-0.127,0.404-0.255,0.616c-0.127,0.212-0.404,0.871-0.574,1.275
			c-0.17,0.404-0.255,0.85-0.298,0.914c-0.042,0.064-0.064,0.106-0.297,0.361c-0.234,0.255-0.212,0.638-0.297,0.701
			c-0.085,0.064-0.234,0.255-0.383,0.446c-0.149,0.191,0,0.361-0.042,0.468c-0.043,0.106-0.298,0.17-0.298,0.17
			c-0.149-0.085-0.935-1.339-0.935-1.339c0.042-0.255,0-0.616-0.064-0.807c-0.064-0.191-0.489-1.785-0.553-2.061
			c-0.064-0.276-0.212-0.191-0.212-0.191c-0.021-0.064-0.085-0.616-0.106-0.829c-0.021-0.213-0.085-0.786-0.149-0.956
			c-0.064-0.17-0.213-0.361-0.361-0.701c-0.149-0.34-0.255-0.276-0.255-0.276s0.297-2.954,0.319-3.23
			c0.021-0.276-0.064-0.425-0.064-0.425c-0.021-0.17,0.489-2.401,0.893-3.208c0.404-0.808,0.956-1.253,1.742-2.72
			c0.786-1.466,1.148-3.654,0.808-5.482s-1.13-3.703-3.518-3.259c-2.252,0.419-2.34,4.415-2.213,5.711s0.801,3.462,0.971,4.907
			c0.17,1.445,0.312,3.718,0.312,3.718h-0.1l-0.404,3.492c-0.064-0.064-0.021-0.314-0.021-0.314s0.042-0.211-0.212-0.233
			s-0.446,0.277-0.616,0.532c-0.17,0.255,0.276,0.638,0.276,0.638c-0.106,0.17-0.127,0.808-0.127,0.808
			c-0.17,0.17-0.17,0.68-0.17,0.68c-0.127,0.149-0.212,0.616-0.234,0.765c-0.021,0.149,0.404,0.489,0.51,0.68
			c0.106,0.191,0.765,0.595,0.765,0.595c-0.064,0.106,0.106,0.616,0.149,0.829s0.319,1.275,0.34,1.466
			c0.021,0.191,0.085,0.319,0.106,0.467c0.021,0.149,0.319,1.36,0.489,1.785c0.17,0.425,1.063,2.38,1.19,2.678
			c0.127,0.297,0.722,0.765,0.85,0.807c0.127,0.042,0.659-0.042,0.871-0.106c0.213-0.064,0.893-0.553,1.126-0.829
			c0.234-0.276,0.935-1.36,0.935-1.36s0.191-0.021,0.319-0.128c0.127-0.106,0.595-0.807,0.595-0.807
			c0.191,0.043,0.701-0.021,0.956-0.085c0.255-0.064,0.531-0.106,0.701-0.085c0.17,0.021,0.574,0.319,0.744,0.404
			c0.17,0.085,0.978,0.829,1.19,0.999c0.213,0.17,0.659,0.17,0.829,0.362c0.17,0.192,0.786,1.019,1.063,1.316
			c0.276,0.298,1.211,1.339,1.53,1.594c0.319,0.255,0.85,0.383,0.914,0.425c0.064,0.042,0,0.467,0.021,0.616
			c0.021,0.149,0.213,0.255,0.319,0.446c0.106,0.191,0.191,0.68,0.191,0.68s0.042,0.255,0.128,0.446
			c0.085,0.191,0.319,0.595,0.319,0.595c0,0.213,0.298,0.574,0.298,0.638s0.085,0.255,0.234,0.468
			c0.149,0.212,0.744,1.36,0.829,1.487c0.085,0.127,0.297,0.255,0.446,0.319c0.149,0.064,0.212,0.425,0.276,0.552
			c0.064,0.128,0.51,0.893,0.659,1.105c0.149,0.212,0.51,0.425,0.616,0.489c0.106,0.064,0.149,0.128,0.298,0.404
			c0.149,0.276,0.106,1.02,0.149,1.19s0.531,0.701,0.978,1.02c0.446,0.319,0.68,0.85,0.85,0.956c0.17,0.106,0.574,0.064,0.574,0.064
			s0.468,0.701,0.553,0.914c0.085,0.212,0.128,0.149,0.064,0.319c-0.064,0.17-2.146,1.764-3.06,2.592
			c-0.914,0.829-0.871,1.636-1.084,2.083c-0.212,0.446-1.211,1.806-1.211,1.806s-0.276,0.383-0.404,0.446
			c-0.128,0.064-0.893,1.296-1.211,1.658c-0.319,0.361-1.105,1.02-1.105,1.02c-0.383-0.064-0.489,0.276-0.489,0.276
			c-0.978,0.425-1.381,1.126-1.381,1.126c-0.234,0.042-0.595,0.212-0.765,0.51c-0.17,0.297,0.319,1.084,0.552,1.615
			c0.234,0.531,0.999,1.147,1.254,1.403c0.255,0.255,0.51,0.637,0.638,1.126c0.127,0.489,0.701,1.211,1.254,1.891
			c0.552,0.68,0.914,0.977,1.36,1.105c0.446,0.128,1.318,0.149,1.764-0.149c0.446-0.297,0.255-0.637,0.255-0.637
			c0-0.191-0.127-0.34-0.297-0.446c-0.17-0.106-0.319-0.085-0.297-0.255s0.128-0.425,0.128-0.425
			c0.468-0.064,0.977,0.064,1.254-0.319c0.276-0.382,0.085-0.68,0.085-0.68c-0.085-0.34-0.68-0.467-0.85-0.574
			c-0.17-0.106-0.361-0.191-0.425-0.297c-0.064-0.106-0.212-0.276-0.319-0.425c-0.106-0.149-0.106-0.17-0.213-0.319
			c-0.106-0.149-0.234-0.382-0.234-0.531c0-0.149-0.255-0.319-0.255-0.319s0.042-0.425,0.106-0.574
			c0.064-0.149,0.106-0.574,0.106-0.659c0-0.085,0.106-0.383,0.255-0.553c0.149-0.17,0.128-0.255,0.128-0.319
			c0-0.064,0.128-0.34,0.128-0.34s0.149-0.149,0.17-0.255c0.021-0.106,0.68-0.85,0.85-1.063c0.17-0.212,0.34-0.425,0.34-0.425
			c0.106-0.191,1.573-1.424,1.997-1.806c0.425-0.382,1.849-1.615,2.061-1.912s1.721-1.721,2.04-2.061
			c0.319-0.34,1.424-1.721,1.424-1.721s0.191-0.276,0.297-0.574c0.106-0.298-0.043-0.977-0.085-1.147
			c-0.043-0.17-0.043-1.126-0.064-1.466c-0.021-0.34-0.127-1.976-0.127-1.976s0.191,0.043,0.319,0
			c0.127-0.042,0.574-0.149,0.595-0.255C562.266,555.7,562.308,555.467,562.245,555.127z M533.772,520.412
			c0-2.719,1.024-4.923,2.287-4.923c1.263,0,2.287,2.204,2.287,4.923s-1.024,4.923-2.287,4.923
			C534.796,525.334,533.772,523.13,533.772,520.412z M535.094,528.014c-0.079,0-0.079-0.471-0.105-0.681
			c-0.026-0.21-0.249-1.938-0.118-2.121c0,0,0.38,0.484,1.231,0.655c0,0,0.157,0,0,0.209c-0.157,0.21-0.589,0.707-0.72,1.178
			C535.252,527.726,535.173,528.014,535.094,528.014z"/>
	</g>
</g>
<g>
	<g>
		<path class="st2" d="M380.394,567.721v-4.022l1.57-1.57h8.115l1.508,1.57v3.96l-1.633,1.641h-7.99L380.394,567.721z
			 M382.659,566.971h6.726v-2.577h-6.726V566.971z"/>
		<path class="st2" d="M380.394,561.355v-5.429h2.21v3.155h2.141l-0.023-3.155h2.297v3.155h4.546v2.273H380.394z"/>
		<path class="st2" d="M380.394,555.161v-5.429h2.21v3.155h2.141l-0.023-3.155h2.297v3.155h4.546v2.273H380.394z"/>
		<path class="st2" d="M380.426,548.974v-2.266h11.146v2.266H380.426z"/>
		<path class="st2" d="M380.394,544.413v-4.038l1.641-1.578h2.46v2.273h-1.891v2.585h6.749v-2.585h-2.585v-2.273h3.218l1.578,1.578
			v4.038l-1.578,1.516h-8.014L380.394,544.413z"/>
		<path class="st2" d="M380.394,538.07v-5.866h2.21v3.593h2.141l-0.023-3.593h2.328l-0.031,3.593h2.335l0.047-3.593h2.164v5.866
			H380.394z"/>
	</g>
</g>
<rect x="339.15" y="533.836" transform="matrix(2.974272e-11 -1 1 2.974272e-11 -164.1958 933.8033)" class="st1" width="91.308" height="30.328"/>
<g>
	<rect x="580.492" y="213.253" class="st1" width="103.998" height="90.856"/>
	<g>
		<g>
			<path class="st2" d="M615.438,273.032h7.484v3.048h-4.351v2.951l4.351-0.032v3.166h-4.351v6.268h-3.134V273.032z"/>
			<path class="st2" d="M624.021,273.032l3.209-0.043v12.341h3.457v-12.298h3.123v13.17l-2.164,2.251h-5.46l-2.165-2.165V273.032z"
				/>
			<path class="st2" d="M634.801,273.032l9.272-0.043v3.166h-3.037v12.298h-3.112v-12.298h-3.123V273.032z"/>
			<path class="st2" d="M647.315,273.032h5.459l2.165,2.165v2.251h-3.123v-1.292h-3.543v2.94h4.588l2.078,2.165v4.943l-2.165,2.251
				h-5.459l-2.165-2.251v-2.165h3.145l-0.021,1.314l3.543,0.064v-3.284h-4.501l-2.165-2.165v-4.685L647.315,273.032z"/>
			<path class="st2" d="M659.333,272.989h4.62l3.23,15.443h-3.316l-0.527-2.875h-3.403l-0.604,2.875h-3.23L659.333,272.989z
				 M660.55,282.584h2.101l-0.959-4.792L660.55,282.584z"/>
			<path class="st2" d="M668.239,272.989h3.145v12.395h4.017v3.059h-7.161V272.989z"/>
		</g>
	</g>
	<path id="XMLID_33_" class="st2" d="M630.378,231.391c3.652,0.291,4.377-3.515,4.377-3.515c0.375-3.07-2.857-4.244-2.857-4.244
		c-3.837-0.469-4.903,2.724-4.903,2.724C625.735,230.72,630.378,231.391,630.378,231.391z"/>
	<path id="XMLID_32_" class="st2" d="M586.287,271.903c0,0,2.2-1.381,2.839-0.637c0,0,4.796-0.809,7.148-2.394
		c0,0,4.053-2.265,5.692-1.652c0,0,1.122,0.423,1.2-1.25l0.305-5.865c0,0-0.682-0.655-0.216-1.867c0,0-0.074-1.469-1.077-2.607
		c0,0-1.292-1.11-0.626-3.441c0.666-2.33-0.028-0.289-0.028-0.289s-0.107-1.981-0.343-2.644c0,0,0.235-2.701,1.639-3.798
		l2.234-6.327c0,0-0.889-1.029-5.415-0.091c0,0-4.559,0.426-5.97,0.031c0,0-1.606-0.101-1.963,0.998c0,0-0.224,1.051-0.886,0.241
		c0,0-1.758,0.102-1.429-1.286l0.489-1.146c0,0,1.991-0.708,3.777-0.522c0,0,1.464-0.297,2.597-0.476c0,0,1.484-0.453,2.672-0.054
		c0,0,3.91-0.569,6.052-1.481c0,0,2.399-1.452,4.444,0.512c0,0,2.164,1.249,2.113-0.154c0,0-2.136-4.324,2.18-4.589
		c0,0,3.824-0.389,4.309,2.653c0,0-0.446,1.056-0.797,1.331c0,0,0.596,0.835-0.025,0.981l-0.185,0.739c0,0,0.099,0.488-0.28,0.474
		c0,0-0.85,2.022-2.37,0.694l-0.522,0.634c0,0,1.662,0.679,2.724,0.301c0,0,0.867-0.085,2.311,0.822l2.913,0.833
		c0,0,1.414-1.699,0.239-1.431c0,0-0.398,0.142-0.364-0.394l-0.634-0.521c0,0-0.667-1.034,0.091-1.005c0,0,0.162-0.805,0.521-0.634
		c0,0,0.205-0.896,0.569-0.502c0,0,0.19-0.516,0.891-0.018c0,0,1.699,1.414,1.068,2.162c0,0,1.172,2.872-0.076,3.989
		c0,0-0.911,1.221-2.299,0.893c0,0-4.453-0.957-6.031-0.769c0,0-1.228,0.96-1.769,1.751c0,0,2.73-0.523,3.833,0.056
		c0,0,2.991-0.84,3.995-0.749c0,0,1.734-0.169,3.123-0.887c0,0,3.1-0.954,5.189-1.174c0,0,3.687-0.565,5.009-1.26
		c0,0-0.094-1.312,1.556-1.301l1.139-2.05c0,0-1.035-2.697,1.021-2.382c0,0,1.695,1.191,1.361,3.404c0,0-0.167,1.63,0.575,3.085
		c0,0,0.571,1.815-1.101,1.737l-1.933,0.239c0,0-3.999,0.527-6.976,2.035c0,0-4.604,2.61-7.863,2.275
		c-3.259-0.335-4.427,1.426-5.617,2.074c0,0-6.059,3.352-6.855,3.635l1.65,3.376c0,0-0.884,2.558-2.372,2.788
		c0,0-0.774,5.808-1.52,7.494c0,0-0.801,4.472-3.094,4.54c0,0-2.668,0.276-5.147,1.084c0,0-4.21,1.05-5.84,0.882
		c0,0-2.116,0.604-2.429,1.014l0.34,0.956l-1.418,0.505l-0.722,1.961c0,0,1.55,3.516-0.789,2.405c0,0-1.774-0.363-1.989-3.277
		c0,0,0.102-1.393-0.651-2.247C586.473,274.315,584.913,272.243,586.287,271.903z"/>
</g>
<rect x="556.049" y="339.67" transform="matrix(5.793661e-11 -1 1 5.793661e-11 243.9461 1024.1604)" class="st1" width="156.008" height="100.874"/>
<g>
	<g>
		<path class="st2" d="M631.902,374.546h3.16v6.059l3.073-6.059h3.595l-3.769,7.113l4.474,8.427h-3.594l-3.779-7.374v7.374h-3.16
			V374.546z"/>
		<path class="st2" d="M646.443,374.546h5.039l1.77,2.02v5.125l-4.04,5.386l4.713-0.043v3.073h-8.491v-3.03l5.038-6.559v-2.943
			h-3.019v1.933h-2.78v-2.606L646.443,374.546z"/>
		<path class="st2" d="M657.823,374.546h5.039l1.77,2.02v5.125l-4.04,5.386l4.713-0.043v3.073h-8.491v-3.03l5.038-6.559v-2.943
			h-3.019v1.933h-2.78v-2.606L657.823,374.546z"/>
	</g>
</g>
<g>
	<rect x="591.198" y="574.872" class="st1" width="102.555" height="154.758"/>
	<g>
		<path class="st2" d="M632.964,705.553l1.793,1.864v5.673l-1.722,1.793h-3.515v3.479h-2.658v-12.845L632.964,705.553z
			 M629.52,708.14v4.156h2.649v-4.156H629.52z"/>
		<path class="st2" d="M638.379,705.517h3.826l2.676,12.792h-2.747l-0.437-2.382h-2.819l-0.499,2.382h-2.677L638.379,705.517z
			 M639.387,713.466h1.739l-0.794-3.97L639.387,713.466z"/>
		<path class="st2" d="M645.763,705.553h6.343l1.802,1.802v9.152l-1.73,1.802h-6.414V705.553z M648.359,708.078v7.707h2.953v-7.707
			H648.359z"/>
		<path class="st2" d="M657.539,705.517h3.826l2.676,12.792h-2.747l-0.437-2.382h-2.819l-0.499,2.382h-2.677L657.539,705.517z
			 M658.547,713.466h1.739l-0.794-3.97L658.547,713.466z"/>
		<path class="st2" d="M664.861,705.553h3.265l2.658,7.172l-0.035-7.172h2.542v12.773h-3.372l-2.506-7.609l0.018,7.609h-2.533
			L664.861,705.553z"/>
		<path class="st2" d="M675.86,705.517h4.7l1.73,1.883v1.658h-2.676v-1.008h-2.89v7.734l2.961,0.035v-2.658l-1.079-0.018v-2.488
			h3.684v5.779l-1.73,1.883h-4.629l-1.812-1.811v-9.251L675.86,705.517z"/>
	</g>
	<g>
		<g id="XMLID_21_">
			<path id="XMLID_22_" class="st2" d="M630.718,637.946c0-2.932,3.299-5.863,3.299-5.863c5.314-3.117,8.063-10.629,8.063-10.629
				c1.283-2.382-0.183-4.764-0.183-4.764c-0.733-2.016-5.497-8.612-5.497-8.612c-2.749-6.413-8.613-6.413-8.613-6.413
				c-2.566-3.115-7.696-4.032-7.696-4.032l-0.054-4.215c2.566-1.832,1.045-4.581,1.045-4.581v-4.581
				c-8.341-9.163-12.955,0.343-12.955,0.343c-1.1,6.047,1.218,14.088,1.218,14.088c-2.566-0.366-4.705,2.519-4.705,2.519
				c-6.962-0.092-6.751,9.62-6.751,9.62l-1.45,13.744c1.466,8.063,10.085,4.399,10.085,4.399l0.554,6.961
				c-2.749,4.398-1.098,10.812-1.098,10.812c1.467,3.849,3.117,12.278,3.117,12.278l5.131,12.644
				c-0.734,3.849,1.099,8.43,1.099,8.43c-4.215,3.665-2.749,9.711-3.482,10.078l-0.549,3.299l2.749,1.1l-0.551,9.344
				c-0.732,4.948-4.214,4.032-4.214,4.032c-4.033-1.466-1.283,2.2-1.283,2.2c0.183,1.466,2.199,1.832,2.199,1.832
				c2.016,0.368,3.298,1.833,3.298,1.833c3.116,2.749,3.116-1.282,3.116-1.282c-0.183-3.3,0.916-9.53,0.916-9.53
				c1.65-2.565,3.666-7.696,3.666-7.696l1.832-0.916l0.367-6.413c-0.183-3.115,2.382-6.414,2.382-6.414l4.215,3.849
				c2.382,1.832,1.282,11.911,1.282,11.911c-0.367,4.948,2.749,0.733,2.749,0.733c2.749-2.199,2.016-6.047,2.016-6.047
				c-0.733-3.299,1.099-5.314,1.099-5.314c2.567-4.031-0.549-4.581-0.549-4.581c-2.566,0.182-4.215-2.749-4.215-2.749l2.199-4.031
				l-7.329-10.262c2.932-8.613,2.932-25.471,2.932-25.471L630.718,637.946z M604.698,616.323l0.917,7.513
				C605.615,623.836,601.949,625.852,604.698,616.323z M629.619,614.673l6.047,4.948c0,0-2.383,3.848-2.933,7.146l-4.764,5.864
				C627.97,632.632,625.772,620.17,629.619,614.673z"/>
		</g>
		<path id="XMLID_20_" class="st2" d="M641.631,626.706c0,0,1.197-5.812,1.197-8.377c0,0,0.342-3.419,2.222-5.984
			c0,0,1.026-3.077,1.71-4.787c0,0,1.881-5.984,4.958-5.984l2.223-0.171c0,0,2.222-1.71,3.248-0.684l1.368,0.513l0.513-1.197
			c0,0-1.539-6.668,3.42-7.18c0,0,7.693-1.71,7.352,7.18c0,0,5.129-2.052,6.155,0.855c0,0,0.342,2.564-0.855,2.051
			c0,0-3.932,2.394-5.471,2.394c0,0,3.248,0.684,5.129,3.078l5.984,5.813c0,0,1.88,1.539,4.274,0.342c0,0,2.393-1.539,3.419,0.171
			c0,0,2.052,0.342,1.197,1.539l-0.171,2.052c0,0-1.197,1.197-2.735,0.171c0,0-3.249,0.855-4.959-0.513c0,0-3.59-2.393-7.351-3.932
			c0,0-4.445-2.052-5.471-2.906c0,0-3.248,2.222-4.787,4.103l-0.513,2.222l-1.881,1.026c0,0-2.564,5.813-2.051,8.89l1.881,2.393
			c0,0,5.129-0.854,7.694,3.762c0,0,8.206,6.668,8.89,8.377c0,0,0.513-1.367,1.71-1.026c0,0,0.342-6.326,3.077-5.984
			c0,0,4.787,2.051,3.249,7.18c0,0-1.539,3.591-1.368,5.471c0,0,0.171,3.762-3.249,3.932c0,0-2.051-1.026-2.051-2.394
			c0,0-1.88-1.197-2.052-1.88c0,0-1.71-1.368-4.958-1.88c0,0-3.59-0.855-5.3-3.933c0,0-1.71-2.052-3.248-0.684
			c0,0-2.394,1.71-4.787,1.026c0,0-2.052,0-3.761,0.513c0,0-3.762,0.171-5.3-1.539c0,0-2.735,8.378-5.3,11.113
			c0,0-3.762,5.3-4.274,7.352c0,0,1.368,1.026,1.539,6.497c0,0,0.684,0.684,1.71,1.026c0,0,1.71,1.71-1.026,5.3
			c0,0-1.539,1.881-2.223,5.642c0,0-2.907,4.616-4.787,1.368c0,0-0.171-3.419,0.513-4.958c0,0-2.735-4.958,0-3.933l0.171-1.539
			c0,0-1.88-1.539-2.393-3.932c0,0-1.88-1.881-0.513-4.445l2.052-11.455l3.077-10.6c0,0,1.197-7.181,0.855-9.061L641.631,626.706z"
			/>
	</g>
</g>
<rect x="524.455" y="371.264" transform="matrix(2.165185e-11 -1 1 2.165185e-11 212.3522 992.5663)" class="st1" width="156.008" height="37.686"/>
<g>
	<g>
		<path class="st2" d="M596.52,407.297v-5.46l2.164-2.165h2.251v3.123h-1.292v3.543h2.939v-4.587l2.165-2.079h4.942l2.251,2.165
			v5.46l-2.251,2.165h-2.164v-3.145l1.313,0.021l0.064-3.543h-3.284v4.501l-2.165,2.165h-4.685L596.52,407.297z"/>
		<path class="st2" d="M596.52,398.53v-8.087h3.047v4.954h2.951l-0.032-4.954h3.209l-0.043,4.954h3.22l0.064-4.954h2.983v8.087
			H596.52z"/>
		<path class="st2" d="M596.476,386.211v-4.62l15.443-3.231v3.317l-2.875,0.528v3.403l2.875,0.603v3.231L596.476,386.211z
			 M606.072,384.994v-2.1l-4.792,0.958L606.072,384.994z"/>
		<path class="st2" d="M596.52,377.305l-0.044-9.272h3.167v3.037h12.298v3.112h-12.298v3.123H596.52z"/>
	</g>
</g>
<g>
	<path class="st2" d="M236.468,31.242h7.791V46.18l7.574-14.938h8.861l-9.289,17.534l11.029,20.773h-8.861l-9.314-18.176v18.176
		h-7.791V31.242z"/>
	<path class="st2" d="M265.78,31.242h20.105v7.576h-12.314v7.335l12.314-0.08v7.977l-12.314-0.107v8.004l12.314,0.161v7.416H265.78
		V31.242z"/>
	<path class="st2" d="M288.401,31.242h11.457l5.221,18.391l4.523-18.391h11.912v38.307h-7.789V44.226l-6.506,25.324h-4.523
		l-6.504-25.324v25.324h-7.791V31.242z"/>
	<path class="st2" d="M324.192,31.242l7.977-0.107v30.678h8.594V31.242h7.764v32.739l-5.381,5.595h-13.572l-5.381-5.38V31.242z"/>
	<path class="st2" d="M351.014,31.242h19.033l5.408,5.408v27.465l-5.193,5.408h-19.248V31.242z M358.804,38.818v23.129h8.861V38.818
		H358.804z"/>
	<path class="st2" d="M386.35,31.135h11.484l8.031,38.388h-8.246l-1.311-7.147h-8.459l-1.5,7.147h-8.031L386.35,31.135z
		 M389.376,54.987h5.221l-2.383-11.913L389.376,54.987z"/>
	<path class="st2" d="M408.382,31.242h7.789v14.081h8.621l0.025-14.081h8.031v38.307h-7.789V52.792l-8.889,0.081v16.677h-7.789
		V31.242z"/>
	<path class="st2" d="M443.53,31.135h11.484l8.031,38.388H454.8l-1.311-7.147h-8.459l-1.5,7.147h-8.031L443.53,31.135z
		 M446.555,54.987h5.221l-2.383-11.913L446.555,54.987z"/>
	<path class="st2" d="M465.509,31.242h9.797l7.979,21.523l-0.107-21.523h7.629v38.334h-10.119l-7.521-22.834l0.053,22.834h-7.602
		L465.509,31.242z"/>
	<path class="st2" d="M357.386,72.21h13.572l5.381,5.381v5.595h-7.764v-3.212h-8.807v7.308h11.404l5.166,5.381v12.287l-5.381,5.595
		h-13.572l-5.381-5.595v-5.381h7.816l-0.053,3.266l8.807,0.161V94.83h-11.189l-5.381-5.38V77.804L357.386,72.21z"/>
	<path class="st2" d="M379.284,72.21l7.977-0.107v30.678h8.594V72.21h7.764v32.739l-5.381,5.595h-13.572l-5.381-5.38V72.21z"/>
	<path class="st2" d="M406.134,72.21h7.789v14.938l7.576-14.938h8.861l-9.289,17.534l11.027,20.773h-8.859l-9.316-18.176v18.176
		h-7.789V72.21z"/>
	<path class="st2" d="M443.53,72.103h11.484l8.031,38.388H454.8l-1.311-7.147h-8.459l-1.5,7.147h-8.031L443.53,72.103z
		 M446.555,95.954h5.221l-2.383-11.913L446.555,95.954z"/>
	<path class="st2" d="M465.509,72.21h9.797l7.977,21.523l-0.107-21.523h7.631v38.334h-10.119l-7.523-22.834l0.055,22.834h-7.604
		L465.509,72.21z"/>
</g>
<g>
	<defs>
		<rect id="SVGID_1_" x="212.385" y="17.502" width="345.951" height="123.692"/>
	</defs>
	<clipPath id="SVGID_2_">
		<use xlink:href="#SVGID_1_"  style="overflow:visible;"/>
	</clipPath>
	<rect x="1.5" y="39.034" class="st4" width="511.717" height="79.885"/>
</g>
<rect x="522.284" y="38.272" class="st2" width="190.305" height="80.647"/>
<rect x="221.182" y="204.269" class="st5" width="484.211" height="641.038"/>
<g>
	<path class="st2" d="M395.116,176.269v-13.277h4.302c1.63,0,2.692,0.066,3.188,0.199c0.761,0.199,1.397,0.633,1.911,1.3
		c0.513,0.667,0.77,1.529,0.77,2.585c0,0.815-0.147,1.5-0.443,2.056c-0.296,0.555-0.672,0.991-1.128,1.309
		c-0.456,0.317-0.919,0.527-1.39,0.629c-0.641,0.126-1.567,0.19-2.78,0.19h-1.748v5.008H395.116z M397.797,165.238v3.768h1.467
		c1.057,0,1.763-0.069,2.119-0.208c0.356-0.139,0.636-0.356,0.838-0.652s0.304-0.64,0.304-1.033c0-0.483-0.143-0.881-0.426-1.195
		c-0.284-0.314-0.644-0.51-1.078-0.588c-0.319-0.061-0.963-0.091-1.929-0.091H397.797z"/>
	<path class="st2" d="M407.487,176.269v-13.277h9.844v2.246h-7.163v2.943h6.665v2.237h-6.665v3.614h7.417v2.237H407.487z"/>
	<path class="st2" d="M419.93,176.269v-13.168h2.681v10.931h6.666v2.237H419.93z"/>
	<path class="st2" d="M443.16,176.269h-2.916l-1.159-3.016h-5.308l-1.096,3.016h-2.844l5.171-13.277h2.835L443.16,176.269z
		 M438.224,171.016l-1.83-4.926l-1.793,4.926H438.224z"/>
	<path class="st2" d="M444.609,176.269v-13.277h2.607l5.435,8.866v-8.866h2.49v13.277h-2.689l-5.353-8.658v8.658H444.609z"/>
	<path class="st2" d="M463.202,176.269v-13.168h2.681v10.931h6.666v2.237H463.202z"/>
	<path class="st2" d="M486.432,176.269h-2.916l-1.159-3.016h-5.308l-1.096,3.016h-2.844l5.171-13.277h2.835L486.432,176.269z
		 M481.497,171.016l-1.83-4.926l-1.793,4.926H481.497z"/>
	<path class="st2" d="M487.882,176.269v-13.277h2.607l5.435,8.866v-8.866h2.49v13.277h-2.689l-5.353-8.658v8.658H487.882z"/>
	<path class="st2" d="M504.236,176.269v-11.031h-3.939v-2.246h10.551v2.246h-3.931v11.031H504.236z"/>
	<path class="st2" d="M523.174,176.269h-2.916l-1.159-3.016h-5.308l-1.096,3.016h-2.844l5.171-13.277h2.835L523.174,176.269z
		 M518.238,171.016l-1.83-4.926l-1.793,4.926H518.238z"/>
	<path class="st2" d="M524.513,176.269v-13.277h2.681v13.277H524.513z"/>
</g>
</svg>